<?xml version="1.0" encoding="utf-8" standalone="no"?>
<!DOCTYPE svg PUBLIC "-//W3C//DTD SVG 1.1//EN"
  "http://www.w3.org/Graphics/SVG/1.1/DTD/svg11.dtd">
<svg xmlns:xlink="http://www.w3.org/1999/xlink" width="605.529375pt" height="167.2275pt" viewBox="0 0 605.529375 167.2275" xmlns="http://www.w3.org/2000/svg" version="1.1">
 <metadata>
  <rdf:RDF xmlns:dc="http://purl.org/dc/elements/1.1/" xmlns:cc="http://creativecommons.org/ns#" xmlns:rdf="http://www.w3.org/1999/02/22-rdf-syntax-ns#">
   <cc:Work>
    <dc:type rdf:resource="http://purl.org/dc/dcmitype/StillImage"/>
    <dc:date>2025-10-12T21:06:41.778355</dc:date>
    <dc:format>image/svg+xml</dc:format>
    <dc:creator>
     <cc:Agent>
      <dc:title>Matplotlib v3.9.2, https://matplotlib.org/</dc:title>
     </cc:Agent>
    </dc:creator>
   </cc:Work>
  </rdf:RDF>
 </metadata>
 <defs>
  <style type="text/css">*{stroke-linejoin: round; stroke-linecap: butt}</style>
 </defs>
 <g id="figure_1">
  <g id="patch_1">
   <path d="M 0 167.2275 
L 605.529375 167.2275 
L 605.529375 0 
L 0 0 
z
" style="fill: #ffffff"/>
  </g>
  <g id="axes_1">
   <g id="patch_2">
    <path d="M 55.139375 125.8 
L 583.059375 125.8 
L 583.059375 7.2 
L 55.139375 7.2 
z
" style="fill: #ffffff"/>
   </g>
   <g id="matplotlib.axis_1">
    <g id="xtick_1">
     <g id="line2d_1">
      <path d="M 55.139375 125.8 
L 55.139375 7.2 
" clip-path="url(#p41a4613005)" style="fill: none; stroke: #b0b0b0; stroke-width: 0.5; stroke-linecap: square"/>
     </g>
     <g id="line2d_2">
      <defs>
       <path id="mc7bffb5889" d="M 0 0 
L 0 3.5 
" style="stroke: #000000; stroke-width: 0.8"/>
      </defs>
      <g>
       <use xlink:href="#mc7bffb5889" x="55.139375" y="125.8" style="stroke: #000000; stroke-width: 0.8"/>
      </g>
     </g>
     <g id="text_1">
      <!-- 0 -->
      <g transform="translate(51.321875 141.918125) scale(0.12 -0.12)">
       <defs>
        <path id="DejaVuSans-30" d="M 2034 4250 
Q 1547 4250 1301 3770 
Q 1056 3291 1056 2328 
Q 1056 1369 1301 889 
Q 1547 409 2034 409 
Q 2525 409 2770 889 
Q 3016 1369 3016 2328 
Q 3016 3291 2770 3770 
Q 2525 4250 2034 4250 
z
M 2034 4750 
Q 2819 4750 3233 4129 
Q 3647 3509 3647 2328 
Q 3647 1150 3233 529 
Q 2819 -91 2034 -91 
Q 1250 -91 836 529 
Q 422 1150 422 2328 
Q 422 3509 836 4129 
Q 1250 4750 2034 4750 
z
" transform="scale(0.015625)"/>
       </defs>
       <use xlink:href="#DejaVuSans-30"/>
      </g>
     </g>
    </g>
    <g id="xtick_2">
     <g id="line2d_3">
      <path d="M 143.126042 125.8 
L 143.126042 7.2 
" clip-path="url(#p41a4613005)" style="fill: none; stroke: #b0b0b0; stroke-width: 0.5; stroke-linecap: square"/>
     </g>
     <g id="line2d_4">
      <g>
       <use xlink:href="#mc7bffb5889" x="143.126042" y="125.8" style="stroke: #000000; stroke-width: 0.8"/>
      </g>
     </g>
     <g id="text_2">
      <!-- 200 -->
      <g transform="translate(131.673542 141.918125) scale(0.12 -0.12)">
       <defs>
        <path id="DejaVuSans-32" d="M 1228 531 
L 3431 531 
L 3431 0 
L 469 0 
L 469 531 
Q 828 903 1448 1529 
Q 2069 2156 2228 2338 
Q 2531 2678 2651 2914 
Q 2772 3150 2772 3378 
Q 2772 3750 2511 3984 
Q 2250 4219 1831 4219 
Q 1534 4219 1204 4116 
Q 875 4013 500 3803 
L 500 4441 
Q 881 4594 1212 4672 
Q 1544 4750 1819 4750 
Q 2544 4750 2975 4387 
Q 3406 4025 3406 3419 
Q 3406 3131 3298 2873 
Q 3191 2616 2906 2266 
Q 2828 2175 2409 1742 
Q 1991 1309 1228 531 
z
" transform="scale(0.015625)"/>
       </defs>
       <use xlink:href="#DejaVuSans-32"/>
       <use xlink:href="#DejaVuSans-30" x="63.623047"/>
       <use xlink:href="#DejaVuSans-30" x="127.246094"/>
      </g>
     </g>
    </g>
    <g id="xtick_3">
     <g id="line2d_5">
      <path d="M 231.112708 125.8 
L 231.112708 7.2 
" clip-path="url(#p41a4613005)" style="fill: none; stroke: #b0b0b0; stroke-width: 0.5; stroke-linecap: square"/>
     </g>
     <g id="line2d_6">
      <g>
       <use xlink:href="#mc7bffb5889" x="231.112708" y="125.8" style="stroke: #000000; stroke-width: 0.8"/>
      </g>
     </g>
     <g id="text_3">
      <!-- 400 -->
      <g transform="translate(219.660208 141.918125) scale(0.12 -0.12)">
       <defs>
        <path id="DejaVuSans-34" d="M 2419 4116 
L 825 1625 
L 2419 1625 
L 2419 4116 
z
M 2253 4666 
L 3047 4666 
L 3047 1625 
L 3713 1625 
L 3713 1100 
L 3047 1100 
L 3047 0 
L 2419 0 
L 2419 1100 
L 313 1100 
L 313 1709 
L 2253 4666 
z
" transform="scale(0.015625)"/>
       </defs>
       <use xlink:href="#DejaVuSans-34"/>
       <use xlink:href="#DejaVuSans-30" x="63.623047"/>
       <use xlink:href="#DejaVuSans-30" x="127.246094"/>
      </g>
     </g>
    </g>
    <g id="xtick_4">
     <g id="line2d_7">
      <path d="M 319.099375 125.8 
L 319.099375 7.2 
" clip-path="url(#p41a4613005)" style="fill: none; stroke: #b0b0b0; stroke-width: 0.5; stroke-linecap: square"/>
     </g>
     <g id="line2d_8">
      <g>
       <use xlink:href="#mc7bffb5889" x="319.099375" y="125.8" style="stroke: #000000; stroke-width: 0.8"/>
      </g>
     </g>
     <g id="text_4">
      <!-- 600 -->
      <g transform="translate(307.646875 141.918125) scale(0.12 -0.12)">
       <defs>
        <path id="DejaVuSans-36" d="M 2113 2584 
Q 1688 2584 1439 2293 
Q 1191 2003 1191 1497 
Q 1191 994 1439 701 
Q 1688 409 2113 409 
Q 2538 409 2786 701 
Q 3034 994 3034 1497 
Q 3034 2003 2786 2293 
Q 2538 2584 2113 2584 
z
M 3366 4563 
L 3366 3988 
Q 3128 4100 2886 4159 
Q 2644 4219 2406 4219 
Q 1781 4219 1451 3797 
Q 1122 3375 1075 2522 
Q 1259 2794 1537 2939 
Q 1816 3084 2150 3084 
Q 2853 3084 3261 2657 
Q 3669 2231 3669 1497 
Q 3669 778 3244 343 
Q 2819 -91 2113 -91 
Q 1303 -91 875 529 
Q 447 1150 447 2328 
Q 447 3434 972 4092 
Q 1497 4750 2381 4750 
Q 2619 4750 2861 4703 
Q 3103 4656 3366 4563 
z
" transform="scale(0.015625)"/>
       </defs>
       <use xlink:href="#DejaVuSans-36"/>
       <use xlink:href="#DejaVuSans-30" x="63.623047"/>
       <use xlink:href="#DejaVuSans-30" x="127.246094"/>
      </g>
     </g>
    </g>
    <g id="xtick_5">
     <g id="line2d_9">
      <path d="M 407.086042 125.8 
L 407.086042 7.2 
" clip-path="url(#p41a4613005)" style="fill: none; stroke: #b0b0b0; stroke-width: 0.5; stroke-linecap: square"/>
     </g>
     <g id="line2d_10">
      <g>
       <use xlink:href="#mc7bffb5889" x="407.086042" y="125.8" style="stroke: #000000; stroke-width: 0.8"/>
      </g>
     </g>
     <g id="text_5">
      <!-- 800 -->
      <g transform="translate(395.633542 141.918125) scale(0.12 -0.12)">
       <defs>
        <path id="DejaVuSans-38" d="M 2034 2216 
Q 1584 2216 1326 1975 
Q 1069 1734 1069 1313 
Q 1069 891 1326 650 
Q 1584 409 2034 409 
Q 2484 409 2743 651 
Q 3003 894 3003 1313 
Q 3003 1734 2745 1975 
Q 2488 2216 2034 2216 
z
M 1403 2484 
Q 997 2584 770 2862 
Q 544 3141 544 3541 
Q 544 4100 942 4425 
Q 1341 4750 2034 4750 
Q 2731 4750 3128 4425 
Q 3525 4100 3525 3541 
Q 3525 3141 3298 2862 
Q 3072 2584 2669 2484 
Q 3125 2378 3379 2068 
Q 3634 1759 3634 1313 
Q 3634 634 3220 271 
Q 2806 -91 2034 -91 
Q 1263 -91 848 271 
Q 434 634 434 1313 
Q 434 1759 690 2068 
Q 947 2378 1403 2484 
z
M 1172 3481 
Q 1172 3119 1398 2916 
Q 1625 2713 2034 2713 
Q 2441 2713 2670 2916 
Q 2900 3119 2900 3481 
Q 2900 3844 2670 4047 
Q 2441 4250 2034 4250 
Q 1625 4250 1398 4047 
Q 1172 3844 1172 3481 
z
" transform="scale(0.015625)"/>
       </defs>
       <use xlink:href="#DejaVuSans-38"/>
       <use xlink:href="#DejaVuSans-30" x="63.623047"/>
       <use xlink:href="#DejaVuSans-30" x="127.246094"/>
      </g>
     </g>
    </g>
    <g id="xtick_6">
     <g id="line2d_11">
      <path d="M 495.072708 125.8 
L 495.072708 7.2 
" clip-path="url(#p41a4613005)" style="fill: none; stroke: #b0b0b0; stroke-width: 0.5; stroke-linecap: square"/>
     </g>
     <g id="line2d_12">
      <g>
       <use xlink:href="#mc7bffb5889" x="495.072708" y="125.8" style="stroke: #000000; stroke-width: 0.8"/>
      </g>
     </g>
     <g id="text_6">
      <!-- 1000 -->
      <g transform="translate(479.802708 141.918125) scale(0.12 -0.12)">
       <defs>
        <path id="DejaVuSans-31" d="M 794 531 
L 1825 531 
L 1825 4091 
L 703 3866 
L 703 4441 
L 1819 4666 
L 2450 4666 
L 2450 531 
L 3481 531 
L 3481 0 
L 794 0 
L 794 531 
z
" transform="scale(0.015625)"/>
       </defs>
       <use xlink:href="#DejaVuSans-31"/>
       <use xlink:href="#DejaVuSans-30" x="63.623047"/>
       <use xlink:href="#DejaVuSans-30" x="127.246094"/>
       <use xlink:href="#DejaVuSans-30" x="190.869141"/>
      </g>
     </g>
    </g>
    <g id="xtick_7">
     <g id="line2d_13">
      <path d="M 583.059375 125.8 
L 583.059375 7.2 
" clip-path="url(#p41a4613005)" style="fill: none; stroke: #b0b0b0; stroke-width: 0.5; stroke-linecap: square"/>
     </g>
     <g id="line2d_14">
      <g>
       <use xlink:href="#mc7bffb5889" x="583.059375" y="125.8" style="stroke: #000000; stroke-width: 0.8"/>
      </g>
     </g>
     <g id="text_7">
      <!-- 1200 -->
      <g transform="translate(567.789375 141.918125) scale(0.12 -0.12)">
       <use xlink:href="#DejaVuSans-31"/>
       <use xlink:href="#DejaVuSans-32" x="63.623047"/>
       <use xlink:href="#DejaVuSans-30" x="127.246094"/>
       <use xlink:href="#DejaVuSans-30" x="190.869141"/>
      </g>
     </g>
    </g>
    <g id="xtick_8">
     <g id="line2d_15">
      <path d="M 77.136042 125.8 
L 77.136042 7.2 
" clip-path="url(#p41a4613005)" style="fill: none; stroke: #b0b0b0; stroke-width: 0.5; stroke-linecap: square"/>
     </g>
     <g id="line2d_16">
      <defs>
       <path id="m1e94ea4bcf" d="M 0 0 
L 0 2 
" style="stroke: #000000; stroke-width: 0.6"/>
      </defs>
      <g>
       <use xlink:href="#m1e94ea4bcf" x="77.136042" y="125.8" style="stroke: #000000; stroke-width: 0.6"/>
      </g>
     </g>
    </g>
    <g id="xtick_9">
     <g id="line2d_17">
      <path d="M 99.132708 125.8 
L 99.132708 7.2 
" clip-path="url(#p41a4613005)" style="fill: none; stroke: #b0b0b0; stroke-width: 0.5; stroke-linecap: square"/>
     </g>
     <g id="line2d_18">
      <g>
       <use xlink:href="#m1e94ea4bcf" x="99.132708" y="125.8" style="stroke: #000000; stroke-width: 0.6"/>
      </g>
     </g>
    </g>
    <g id="xtick_10">
     <g id="line2d_19">
      <path d="M 121.129375 125.8 
L 121.129375 7.2 
" clip-path="url(#p41a4613005)" style="fill: none; stroke: #b0b0b0; stroke-width: 0.5; stroke-linecap: square"/>
     </g>
     <g id="line2d_20">
      <g>
       <use xlink:href="#m1e94ea4bcf" x="121.129375" y="125.8" style="stroke: #000000; stroke-width: 0.6"/>
      </g>
     </g>
    </g>
    <g id="xtick_11">
     <g id="line2d_21">
      <path d="M 165.122708 125.8 
L 165.122708 7.2 
" clip-path="url(#p41a4613005)" style="fill: none; stroke: #b0b0b0; stroke-width: 0.5; stroke-linecap: square"/>
     </g>
     <g id="line2d_22">
      <g>
       <use xlink:href="#m1e94ea4bcf" x="165.122708" y="125.8" style="stroke: #000000; stroke-width: 0.6"/>
      </g>
     </g>
    </g>
    <g id="xtick_12">
     <g id="line2d_23">
      <path d="M 187.119375 125.8 
L 187.119375 7.2 
" clip-path="url(#p41a4613005)" style="fill: none; stroke: #b0b0b0; stroke-width: 0.5; stroke-linecap: square"/>
     </g>
     <g id="line2d_24">
      <g>
       <use xlink:href="#m1e94ea4bcf" x="187.119375" y="125.8" style="stroke: #000000; stroke-width: 0.6"/>
      </g>
     </g>
    </g>
    <g id="xtick_13">
     <g id="line2d_25">
      <path d="M 209.116042 125.8 
L 209.116042 7.2 
" clip-path="url(#p41a4613005)" style="fill: none; stroke: #b0b0b0; stroke-width: 0.5; stroke-linecap: square"/>
     </g>
     <g id="line2d_26">
      <g>
       <use xlink:href="#m1e94ea4bcf" x="209.116042" y="125.8" style="stroke: #000000; stroke-width: 0.6"/>
      </g>
     </g>
    </g>
    <g id="xtick_14">
     <g id="line2d_27">
      <path d="M 253.109375 125.8 
L 253.109375 7.2 
" clip-path="url(#p41a4613005)" style="fill: none; stroke: #b0b0b0; stroke-width: 0.5; stroke-linecap: square"/>
     </g>
     <g id="line2d_28">
      <g>
       <use xlink:href="#m1e94ea4bcf" x="253.109375" y="125.8" style="stroke: #000000; stroke-width: 0.6"/>
      </g>
     </g>
    </g>
    <g id="xtick_15">
     <g id="line2d_29">
      <path d="M 275.106042 125.8 
L 275.106042 7.2 
" clip-path="url(#p41a4613005)" style="fill: none; stroke: #b0b0b0; stroke-width: 0.5; stroke-linecap: square"/>
     </g>
     <g id="line2d_30">
      <g>
       <use xlink:href="#m1e94ea4bcf" x="275.106042" y="125.8" style="stroke: #000000; stroke-width: 0.6"/>
      </g>
     </g>
    </g>
    <g id="xtick_16">
     <g id="line2d_31">
      <path d="M 297.102708 125.8 
L 297.102708 7.2 
" clip-path="url(#p41a4613005)" style="fill: none; stroke: #b0b0b0; stroke-width: 0.5; stroke-linecap: square"/>
     </g>
     <g id="line2d_32">
      <g>
       <use xlink:href="#m1e94ea4bcf" x="297.102708" y="125.8" style="stroke: #000000; stroke-width: 0.6"/>
      </g>
     </g>
    </g>
    <g id="xtick_17">
     <g id="line2d_33">
      <path d="M 341.096042 125.8 
L 341.096042 7.2 
" clip-path="url(#p41a4613005)" style="fill: none; stroke: #b0b0b0; stroke-width: 0.5; stroke-linecap: square"/>
     </g>
     <g id="line2d_34">
      <g>
       <use xlink:href="#m1e94ea4bcf" x="341.096042" y="125.8" style="stroke: #000000; stroke-width: 0.6"/>
      </g>
     </g>
    </g>
    <g id="xtick_18">
     <g id="line2d_35">
      <path d="M 363.092708 125.8 
L 363.092708 7.2 
" clip-path="url(#p41a4613005)" style="fill: none; stroke: #b0b0b0; stroke-width: 0.5; stroke-linecap: square"/>
     </g>
     <g id="line2d_36">
      <g>
       <use xlink:href="#m1e94ea4bcf" x="363.092708" y="125.8" style="stroke: #000000; stroke-width: 0.6"/>
      </g>
     </g>
    </g>
    <g id="xtick_19">
     <g id="line2d_37">
      <path d="M 385.089375 125.8 
L 385.089375 7.2 
" clip-path="url(#p41a4613005)" style="fill: none; stroke: #b0b0b0; stroke-width: 0.5; stroke-linecap: square"/>
     </g>
     <g id="line2d_38">
      <g>
       <use xlink:href="#m1e94ea4bcf" x="385.089375" y="125.8" style="stroke: #000000; stroke-width: 0.6"/>
      </g>
     </g>
    </g>
    <g id="xtick_20">
     <g id="line2d_39">
      <path d="M 429.082708 125.8 
L 429.082708 7.2 
" clip-path="url(#p41a4613005)" style="fill: none; stroke: #b0b0b0; stroke-width: 0.5; stroke-linecap: square"/>
     </g>
     <g id="line2d_40">
      <g>
       <use xlink:href="#m1e94ea4bcf" x="429.082708" y="125.8" style="stroke: #000000; stroke-width: 0.6"/>
      </g>
     </g>
    </g>
    <g id="xtick_21">
     <g id="line2d_41">
      <path d="M 451.079375 125.8 
L 451.079375 7.2 
" clip-path="url(#p41a4613005)" style="fill: none; stroke: #b0b0b0; stroke-width: 0.5; stroke-linecap: square"/>
     </g>
     <g id="line2d_42">
      <g>
       <use xlink:href="#m1e94ea4bcf" x="451.079375" y="125.8" style="stroke: #000000; stroke-width: 0.6"/>
      </g>
     </g>
    </g>
    <g id="xtick_22">
     <g id="line2d_43">
      <path d="M 473.076042 125.8 
L 473.076042 7.2 
" clip-path="url(#p41a4613005)" style="fill: none; stroke: #b0b0b0; stroke-width: 0.5; stroke-linecap: square"/>
     </g>
     <g id="line2d_44">
      <g>
       <use xlink:href="#m1e94ea4bcf" x="473.076042" y="125.8" style="stroke: #000000; stroke-width: 0.6"/>
      </g>
     </g>
    </g>
    <g id="xtick_23">
     <g id="line2d_45">
      <path d="M 517.069375 125.8 
L 517.069375 7.2 
" clip-path="url(#p41a4613005)" style="fill: none; stroke: #b0b0b0; stroke-width: 0.5; stroke-linecap: square"/>
     </g>
     <g id="line2d_46">
      <g>
       <use xlink:href="#m1e94ea4bcf" x="517.069375" y="125.8" style="stroke: #000000; stroke-width: 0.6"/>
      </g>
     </g>
    </g>
    <g id="xtick_24">
     <g id="line2d_47">
      <path d="M 539.066042 125.8 
L 539.066042 7.2 
" clip-path="url(#p41a4613005)" style="fill: none; stroke: #b0b0b0; stroke-width: 0.5; stroke-linecap: square"/>
     </g>
     <g id="line2d_48">
      <g>
       <use xlink:href="#m1e94ea4bcf" x="539.066042" y="125.8" style="stroke: #000000; stroke-width: 0.6"/>
      </g>
     </g>
    </g>
    <g id="xtick_25">
     <g id="line2d_49">
      <path d="M 561.062708 125.8 
L 561.062708 7.2 
" clip-path="url(#p41a4613005)" style="fill: none; stroke: #b0b0b0; stroke-width: 0.5; stroke-linecap: square"/>
     </g>
     <g id="line2d_50">
      <g>
       <use xlink:href="#m1e94ea4bcf" x="561.062708" y="125.8" style="stroke: #000000; stroke-width: 0.6"/>
      </g>
     </g>
    </g>
    <g id="text_8">
     <!-- Frequency [Hz] -->
     <g transform="translate(273.85375 157.531875) scale(0.12 -0.12)">
      <defs>
       <path id="DejaVuSans-46" d="M 628 4666 
L 3309 4666 
L 3309 4134 
L 1259 4134 
L 1259 2759 
L 3109 2759 
L 3109 2228 
L 1259 2228 
L 1259 0 
L 628 0 
L 628 4666 
z
" transform="scale(0.015625)"/>
       <path id="DejaVuSans-72" d="M 2631 2963 
Q 2534 3019 2420 3045 
Q 2306 3072 2169 3072 
Q 1681 3072 1420 2755 
Q 1159 2438 1159 1844 
L 1159 0 
L 581 0 
L 581 3500 
L 1159 3500 
L 1159 2956 
Q 1341 3275 1631 3429 
Q 1922 3584 2338 3584 
Q 2397 3584 2469 3576 
Q 2541 3569 2628 3553 
L 2631 2963 
z
" transform="scale(0.015625)"/>
       <path id="DejaVuSans-65" d="M 3597 1894 
L 3597 1613 
L 953 1613 
Q 991 1019 1311 708 
Q 1631 397 2203 397 
Q 2534 397 2845 478 
Q 3156 559 3463 722 
L 3463 178 
Q 3153 47 2828 -22 
Q 2503 -91 2169 -91 
Q 1331 -91 842 396 
Q 353 884 353 1716 
Q 353 2575 817 3079 
Q 1281 3584 2069 3584 
Q 2775 3584 3186 3129 
Q 3597 2675 3597 1894 
z
M 3022 2063 
Q 3016 2534 2758 2815 
Q 2500 3097 2075 3097 
Q 1594 3097 1305 2825 
Q 1016 2553 972 2059 
L 3022 2063 
z
" transform="scale(0.015625)"/>
       <path id="DejaVuSans-71" d="M 947 1747 
Q 947 1113 1208 752 
Q 1469 391 1925 391 
Q 2381 391 2643 752 
Q 2906 1113 2906 1747 
Q 2906 2381 2643 2742 
Q 2381 3103 1925 3103 
Q 1469 3103 1208 2742 
Q 947 2381 947 1747 
z
M 2906 525 
Q 2725 213 2448 61 
Q 2172 -91 1784 -91 
Q 1150 -91 751 415 
Q 353 922 353 1747 
Q 353 2572 751 3078 
Q 1150 3584 1784 3584 
Q 2172 3584 2448 3432 
Q 2725 3281 2906 2969 
L 2906 3500 
L 3481 3500 
L 3481 -1331 
L 2906 -1331 
L 2906 525 
z
" transform="scale(0.015625)"/>
       <path id="DejaVuSans-75" d="M 544 1381 
L 544 3500 
L 1119 3500 
L 1119 1403 
Q 1119 906 1312 657 
Q 1506 409 1894 409 
Q 2359 409 2629 706 
Q 2900 1003 2900 1516 
L 2900 3500 
L 3475 3500 
L 3475 0 
L 2900 0 
L 2900 538 
Q 2691 219 2414 64 
Q 2138 -91 1772 -91 
Q 1169 -91 856 284 
Q 544 659 544 1381 
z
M 1991 3584 
L 1991 3584 
z
" transform="scale(0.015625)"/>
       <path id="DejaVuSans-6e" d="M 3513 2113 
L 3513 0 
L 2938 0 
L 2938 2094 
Q 2938 2591 2744 2837 
Q 2550 3084 2163 3084 
Q 1697 3084 1428 2787 
Q 1159 2491 1159 1978 
L 1159 0 
L 581 0 
L 581 3500 
L 1159 3500 
L 1159 2956 
Q 1366 3272 1645 3428 
Q 1925 3584 2291 3584 
Q 2894 3584 3203 3211 
Q 3513 2838 3513 2113 
z
" transform="scale(0.015625)"/>
       <path id="DejaVuSans-63" d="M 3122 3366 
L 3122 2828 
Q 2878 2963 2633 3030 
Q 2388 3097 2138 3097 
Q 1578 3097 1268 2742 
Q 959 2388 959 1747 
Q 959 1106 1268 751 
Q 1578 397 2138 397 
Q 2388 397 2633 464 
Q 2878 531 3122 666 
L 3122 134 
Q 2881 22 2623 -34 
Q 2366 -91 2075 -91 
Q 1284 -91 818 406 
Q 353 903 353 1747 
Q 353 2603 823 3093 
Q 1294 3584 2113 3584 
Q 2378 3584 2631 3529 
Q 2884 3475 3122 3366 
z
" transform="scale(0.015625)"/>
       <path id="DejaVuSans-79" d="M 2059 -325 
Q 1816 -950 1584 -1140 
Q 1353 -1331 966 -1331 
L 506 -1331 
L 506 -850 
L 844 -850 
Q 1081 -850 1212 -737 
Q 1344 -625 1503 -206 
L 1606 56 
L 191 3500 
L 800 3500 
L 1894 763 
L 2988 3500 
L 3597 3500 
L 2059 -325 
z
" transform="scale(0.015625)"/>
       <path id="DejaVuSans-20" transform="scale(0.015625)"/>
       <path id="DejaVuSans-5b" d="M 550 4863 
L 1875 4863 
L 1875 4416 
L 1125 4416 
L 1125 -397 
L 1875 -397 
L 1875 -844 
L 550 -844 
L 550 4863 
z
" transform="scale(0.015625)"/>
       <path id="DejaVuSans-48" d="M 628 4666 
L 1259 4666 
L 1259 2753 
L 3553 2753 
L 3553 4666 
L 4184 4666 
L 4184 0 
L 3553 0 
L 3553 2222 
L 1259 2222 
L 1259 0 
L 628 0 
L 628 4666 
z
" transform="scale(0.015625)"/>
       <path id="DejaVuSans-7a" d="M 353 3500 
L 3084 3500 
L 3084 2975 
L 922 459 
L 3084 459 
L 3084 0 
L 275 0 
L 275 525 
L 2438 3041 
L 353 3041 
L 353 3500 
z
" transform="scale(0.015625)"/>
       <path id="DejaVuSans-5d" d="M 1947 4863 
L 1947 -844 
L 622 -844 
L 622 -397 
L 1369 -397 
L 1369 4416 
L 622 4416 
L 622 4863 
L 1947 4863 
z
" transform="scale(0.015625)"/>
      </defs>
      <use xlink:href="#DejaVuSans-46"/>
      <use xlink:href="#DejaVuSans-72" x="50.269531"/>
      <use xlink:href="#DejaVuSans-65" x="89.132812"/>
      <use xlink:href="#DejaVuSans-71" x="150.65625"/>
      <use xlink:href="#DejaVuSans-75" x="214.132812"/>
      <use xlink:href="#DejaVuSans-65" x="277.511719"/>
      <use xlink:href="#DejaVuSans-6e" x="339.035156"/>
      <use xlink:href="#DejaVuSans-63" x="402.414062"/>
      <use xlink:href="#DejaVuSans-79" x="457.394531"/>
      <use xlink:href="#DejaVuSans-20" x="516.574219"/>
      <use xlink:href="#DejaVuSans-5b" x="548.361328"/>
      <use xlink:href="#DejaVuSans-48" x="587.375"/>
      <use xlink:href="#DejaVuSans-7a" x="662.570312"/>
      <use xlink:href="#DejaVuSans-5d" x="715.060547"/>
     </g>
    </g>
   </g>
   <g id="matplotlib.axis_2">
    <g id="ytick_1">
     <g id="line2d_51">
      <path d="M 55.139375 109.986667 
L 583.059375 109.986667 
" clip-path="url(#p41a4613005)" style="fill: none; stroke: #b0b0b0; stroke-width: 0.5; stroke-linecap: square"/>
     </g>
     <g id="line2d_52">
      <defs>
       <path id="m672c858d64" d="M 0 0 
L -3.5 0 
" style="stroke: #000000; stroke-width: 0.8"/>
      </defs>
      <g>
       <use xlink:href="#m672c858d64" x="55.139375" y="109.986667" style="stroke: #000000; stroke-width: 0.8"/>
      </g>
     </g>
     <g id="text_9">
      <!-- −60 -->
      <g transform="translate(22.81375 114.545729) scale(0.12 -0.12)">
       <defs>
        <path id="DejaVuSans-2212" d="M 678 2272 
L 4684 2272 
L 4684 1741 
L 678 1741 
L 678 2272 
z
" transform="scale(0.015625)"/>
       </defs>
       <use xlink:href="#DejaVuSans-2212"/>
       <use xlink:href="#DejaVuSans-36" x="83.789062"/>
       <use xlink:href="#DejaVuSans-30" x="147.412109"/>
      </g>
     </g>
    </g>
    <g id="ytick_2">
     <g id="line2d_53">
      <path d="M 55.139375 78.36 
L 583.059375 78.36 
" clip-path="url(#p41a4613005)" style="fill: none; stroke: #b0b0b0; stroke-width: 0.5; stroke-linecap: square"/>
     </g>
     <g id="line2d_54">
      <g>
       <use xlink:href="#m672c858d64" x="55.139375" y="78.36" style="stroke: #000000; stroke-width: 0.8"/>
      </g>
     </g>
     <g id="text_10">
      <!-- −40 -->
      <g transform="translate(22.81375 82.919062) scale(0.12 -0.12)">
       <use xlink:href="#DejaVuSans-2212"/>
       <use xlink:href="#DejaVuSans-34" x="83.789062"/>
       <use xlink:href="#DejaVuSans-30" x="147.412109"/>
      </g>
     </g>
    </g>
    <g id="ytick_3">
     <g id="line2d_55">
      <path d="M 55.139375 46.733333 
L 583.059375 46.733333 
" clip-path="url(#p41a4613005)" style="fill: none; stroke: #b0b0b0; stroke-width: 0.5; stroke-linecap: square"/>
     </g>
     <g id="line2d_56">
      <g>
       <use xlink:href="#m672c858d64" x="55.139375" y="46.733333" style="stroke: #000000; stroke-width: 0.8"/>
      </g>
     </g>
     <g id="text_11">
      <!-- −20 -->
      <g transform="translate(22.81375 51.292396) scale(0.12 -0.12)">
       <use xlink:href="#DejaVuSans-2212"/>
       <use xlink:href="#DejaVuSans-32" x="83.789062"/>
       <use xlink:href="#DejaVuSans-30" x="147.412109"/>
      </g>
     </g>
    </g>
    <g id="ytick_4">
     <g id="line2d_57">
      <path d="M 55.139375 15.106667 
L 583.059375 15.106667 
" clip-path="url(#p41a4613005)" style="fill: none; stroke: #b0b0b0; stroke-width: 0.5; stroke-linecap: square"/>
     </g>
     <g id="line2d_58">
      <g>
       <use xlink:href="#m672c858d64" x="55.139375" y="15.106667" style="stroke: #000000; stroke-width: 0.8"/>
      </g>
     </g>
     <g id="text_12">
      <!-- 0 -->
      <g transform="translate(40.504375 19.665729) scale(0.12 -0.12)">
       <use xlink:href="#DejaVuSans-30"/>
      </g>
     </g>
    </g>
    <g id="ytick_5">
     <g id="line2d_59">
      <path d="M 55.139375 125.8 
L 583.059375 125.8 
" clip-path="url(#p41a4613005)" style="fill: none; stroke: #b0b0b0; stroke-width: 0.5; stroke-linecap: square"/>
     </g>
     <g id="line2d_60">
      <defs>
       <path id="m90ccb8de98" d="M 0 0 
L -2 0 
" style="stroke: #000000; stroke-width: 0.6"/>
      </defs>
      <g>
       <use xlink:href="#m90ccb8de98" x="55.139375" y="125.8" style="stroke: #000000; stroke-width: 0.6"/>
      </g>
     </g>
    </g>
    <g id="ytick_6">
     <g id="line2d_61">
      <path d="M 55.139375 117.893333 
L 583.059375 117.893333 
" clip-path="url(#p41a4613005)" style="fill: none; stroke: #b0b0b0; stroke-width: 0.5; stroke-linecap: square"/>
     </g>
     <g id="line2d_62">
      <g>
       <use xlink:href="#m90ccb8de98" x="55.139375" y="117.893333" style="stroke: #000000; stroke-width: 0.6"/>
      </g>
     </g>
    </g>
    <g id="ytick_7">
     <g id="line2d_63">
      <path d="M 55.139375 102.08 
L 583.059375 102.08 
" clip-path="url(#p41a4613005)" style="fill: none; stroke: #b0b0b0; stroke-width: 0.5; stroke-linecap: square"/>
     </g>
     <g id="line2d_64">
      <g>
       <use xlink:href="#m90ccb8de98" x="55.139375" y="102.08" style="stroke: #000000; stroke-width: 0.6"/>
      </g>
     </g>
    </g>
    <g id="ytick_8">
     <g id="line2d_65">
      <path d="M 55.139375 94.173333 
L 583.059375 94.173333 
" clip-path="url(#p41a4613005)" style="fill: none; stroke: #b0b0b0; stroke-width: 0.5; stroke-linecap: square"/>
     </g>
     <g id="line2d_66">
      <g>
       <use xlink:href="#m90ccb8de98" x="55.139375" y="94.173333" style="stroke: #000000; stroke-width: 0.6"/>
      </g>
     </g>
    </g>
    <g id="ytick_9">
     <g id="line2d_67">
      <path d="M 55.139375 86.266667 
L 583.059375 86.266667 
" clip-path="url(#p41a4613005)" style="fill: none; stroke: #b0b0b0; stroke-width: 0.5; stroke-linecap: square"/>
     </g>
     <g id="line2d_68">
      <g>
       <use xlink:href="#m90ccb8de98" x="55.139375" y="86.266667" style="stroke: #000000; stroke-width: 0.6"/>
      </g>
     </g>
    </g>
    <g id="ytick_10">
     <g id="line2d_69">
      <path d="M 55.139375 70.453333 
L 583.059375 70.453333 
" clip-path="url(#p41a4613005)" style="fill: none; stroke: #b0b0b0; stroke-width: 0.5; stroke-linecap: square"/>
     </g>
     <g id="line2d_70">
      <g>
       <use xlink:href="#m90ccb8de98" x="55.139375" y="70.453333" style="stroke: #000000; stroke-width: 0.6"/>
      </g>
     </g>
    </g>
    <g id="ytick_11">
     <g id="line2d_71">
      <path d="M 55.139375 62.546667 
L 583.059375 62.546667 
" clip-path="url(#p41a4613005)" style="fill: none; stroke: #b0b0b0; stroke-width: 0.5; stroke-linecap: square"/>
     </g>
     <g id="line2d_72">
      <g>
       <use xlink:href="#m90ccb8de98" x="55.139375" y="62.546667" style="stroke: #000000; stroke-width: 0.6"/>
      </g>
     </g>
    </g>
    <g id="ytick_12">
     <g id="line2d_73">
      <path d="M 55.139375 54.64 
L 583.059375 54.64 
" clip-path="url(#p41a4613005)" style="fill: none; stroke: #b0b0b0; stroke-width: 0.5; stroke-linecap: square"/>
     </g>
     <g id="line2d_74">
      <g>
       <use xlink:href="#m90ccb8de98" x="55.139375" y="54.64" style="stroke: #000000; stroke-width: 0.6"/>
      </g>
     </g>
    </g>
    <g id="ytick_13">
     <g id="line2d_75">
      <path d="M 55.139375 38.826667 
L 583.059375 38.826667 
" clip-path="url(#p41a4613005)" style="fill: none; stroke: #b0b0b0; stroke-width: 0.5; stroke-linecap: square"/>
     </g>
     <g id="line2d_76">
      <g>
       <use xlink:href="#m90ccb8de98" x="55.139375" y="38.826667" style="stroke: #000000; stroke-width: 0.6"/>
      </g>
     </g>
    </g>
    <g id="ytick_14">
     <g id="line2d_77">
      <path d="M 55.139375 30.92 
L 583.059375 30.92 
" clip-path="url(#p41a4613005)" style="fill: none; stroke: #b0b0b0; stroke-width: 0.5; stroke-linecap: square"/>
     </g>
     <g id="line2d_78">
      <g>
       <use xlink:href="#m90ccb8de98" x="55.139375" y="30.92" style="stroke: #000000; stroke-width: 0.6"/>
      </g>
     </g>
    </g>
    <g id="ytick_15">
     <g id="line2d_79">
      <path d="M 55.139375 23.013333 
L 583.059375 23.013333 
" clip-path="url(#p41a4613005)" style="fill: none; stroke: #b0b0b0; stroke-width: 0.5; stroke-linecap: square"/>
     </g>
     <g id="line2d_80">
      <g>
       <use xlink:href="#m90ccb8de98" x="55.139375" y="23.013333" style="stroke: #000000; stroke-width: 0.6"/>
      </g>
     </g>
    </g>
    <g id="ytick_16">
     <g id="line2d_81">
      <path d="M 55.139375 7.2 
L 583.059375 7.2 
" clip-path="url(#p41a4613005)" style="fill: none; stroke: #b0b0b0; stroke-width: 0.5; stroke-linecap: square"/>
     </g>
     <g id="line2d_82">
      <g>
       <use xlink:href="#m90ccb8de98" x="55.139375" y="7.2" style="stroke: #000000; stroke-width: 0.6"/>
      </g>
     </g>
    </g>
    <g id="text_13">
     <!-- Magnitude [dB] -->
     <g transform="translate(16.318125 112.802187) rotate(-90) scale(0.12 -0.12)">
      <defs>
       <path id="DejaVuSans-4d" d="M 628 4666 
L 1569 4666 
L 2759 1491 
L 3956 4666 
L 4897 4666 
L 4897 0 
L 4281 0 
L 4281 4097 
L 3078 897 
L 2444 897 
L 1241 4097 
L 1241 0 
L 628 0 
L 628 4666 
z
" transform="scale(0.015625)"/>
       <path id="DejaVuSans-61" d="M 2194 1759 
Q 1497 1759 1228 1600 
Q 959 1441 959 1056 
Q 959 750 1161 570 
Q 1363 391 1709 391 
Q 2188 391 2477 730 
Q 2766 1069 2766 1631 
L 2766 1759 
L 2194 1759 
z
M 3341 1997 
L 3341 0 
L 2766 0 
L 2766 531 
Q 2569 213 2275 61 
Q 1981 -91 1556 -91 
Q 1019 -91 701 211 
Q 384 513 384 1019 
Q 384 1609 779 1909 
Q 1175 2209 1959 2209 
L 2766 2209 
L 2766 2266 
Q 2766 2663 2505 2880 
Q 2244 3097 1772 3097 
Q 1472 3097 1187 3025 
Q 903 2953 641 2809 
L 641 3341 
Q 956 3463 1253 3523 
Q 1550 3584 1831 3584 
Q 2591 3584 2966 3190 
Q 3341 2797 3341 1997 
z
" transform="scale(0.015625)"/>
       <path id="DejaVuSans-67" d="M 2906 1791 
Q 2906 2416 2648 2759 
Q 2391 3103 1925 3103 
Q 1463 3103 1205 2759 
Q 947 2416 947 1791 
Q 947 1169 1205 825 
Q 1463 481 1925 481 
Q 2391 481 2648 825 
Q 2906 1169 2906 1791 
z
M 3481 434 
Q 3481 -459 3084 -895 
Q 2688 -1331 1869 -1331 
Q 1566 -1331 1297 -1286 
Q 1028 -1241 775 -1147 
L 775 -588 
Q 1028 -725 1275 -790 
Q 1522 -856 1778 -856 
Q 2344 -856 2625 -561 
Q 2906 -266 2906 331 
L 2906 616 
Q 2728 306 2450 153 
Q 2172 0 1784 0 
Q 1141 0 747 490 
Q 353 981 353 1791 
Q 353 2603 747 3093 
Q 1141 3584 1784 3584 
Q 2172 3584 2450 3431 
Q 2728 3278 2906 2969 
L 2906 3500 
L 3481 3500 
L 3481 434 
z
" transform="scale(0.015625)"/>
       <path id="DejaVuSans-69" d="M 603 3500 
L 1178 3500 
L 1178 0 
L 603 0 
L 603 3500 
z
M 603 4863 
L 1178 4863 
L 1178 4134 
L 603 4134 
L 603 4863 
z
" transform="scale(0.015625)"/>
       <path id="DejaVuSans-74" d="M 1172 4494 
L 1172 3500 
L 2356 3500 
L 2356 3053 
L 1172 3053 
L 1172 1153 
Q 1172 725 1289 603 
Q 1406 481 1766 481 
L 2356 481 
L 2356 0 
L 1766 0 
Q 1100 0 847 248 
Q 594 497 594 1153 
L 594 3053 
L 172 3053 
L 172 3500 
L 594 3500 
L 594 4494 
L 1172 4494 
z
" transform="scale(0.015625)"/>
       <path id="DejaVuSans-64" d="M 2906 2969 
L 2906 4863 
L 3481 4863 
L 3481 0 
L 2906 0 
L 2906 525 
Q 2725 213 2448 61 
Q 2172 -91 1784 -91 
Q 1150 -91 751 415 
Q 353 922 353 1747 
Q 353 2572 751 3078 
Q 1150 3584 1784 3584 
Q 2172 3584 2448 3432 
Q 2725 3281 2906 2969 
z
M 947 1747 
Q 947 1113 1208 752 
Q 1469 391 1925 391 
Q 2381 391 2643 752 
Q 2906 1113 2906 1747 
Q 2906 2381 2643 2742 
Q 2381 3103 1925 3103 
Q 1469 3103 1208 2742 
Q 947 2381 947 1747 
z
" transform="scale(0.015625)"/>
       <path id="DejaVuSans-42" d="M 1259 2228 
L 1259 519 
L 2272 519 
Q 2781 519 3026 730 
Q 3272 941 3272 1375 
Q 3272 1813 3026 2020 
Q 2781 2228 2272 2228 
L 1259 2228 
z
M 1259 4147 
L 1259 2741 
L 2194 2741 
Q 2656 2741 2882 2914 
Q 3109 3088 3109 3444 
Q 3109 3797 2882 3972 
Q 2656 4147 2194 4147 
L 1259 4147 
z
M 628 4666 
L 2241 4666 
Q 2963 4666 3353 4366 
Q 3744 4066 3744 3513 
Q 3744 3084 3544 2831 
Q 3344 2578 2956 2516 
Q 3422 2416 3680 2098 
Q 3938 1781 3938 1306 
Q 3938 681 3513 340 
Q 3088 0 2303 0 
L 628 0 
L 628 4666 
z
" transform="scale(0.015625)"/>
      </defs>
      <use xlink:href="#DejaVuSans-4d"/>
      <use xlink:href="#DejaVuSans-61" x="86.279297"/>
      <use xlink:href="#DejaVuSans-67" x="147.558594"/>
      <use xlink:href="#DejaVuSans-6e" x="211.035156"/>
      <use xlink:href="#DejaVuSans-69" x="274.414062"/>
      <use xlink:href="#DejaVuSans-74" x="302.197266"/>
      <use xlink:href="#DejaVuSans-75" x="341.40625"/>
      <use xlink:href="#DejaVuSans-64" x="404.785156"/>
      <use xlink:href="#DejaVuSans-65" x="468.261719"/>
      <use xlink:href="#DejaVuSans-20" x="529.785156"/>
      <use xlink:href="#DejaVuSans-5b" x="561.572266"/>
      <use xlink:href="#DejaVuSans-64" x="600.585938"/>
      <use xlink:href="#DejaVuSans-42" x="664.0625"/>
      <use xlink:href="#DejaVuSans-5d" x="732.666016"/>
     </g>
    </g>
   </g>
   <g id="line2d_83">
    <path d="M 61.958342 125.8 
L 61.958342 7.2 
" clip-path="url(#p41a4613005)" style="fill: none; stroke-dasharray: 4.44,1.92; stroke-dashoffset: 0; stroke: #ff0000; stroke-width: 1.2"/>
   </g>
   <g id="line2d_84">
    <path d="M 224.293742 125.8 
L 224.293742 7.2 
" clip-path="url(#p41a4613005)" style="fill: none; stroke-dasharray: 4.44,1.92; stroke-dashoffset: 0; stroke: #ff0000; stroke-width: 1.2"/>
   </g>
   <g id="line2d_85">
    <path d="M 305.461442 125.8 
L 305.461442 7.2 
" clip-path="url(#p41a4613005)" style="fill: none; stroke-dasharray: 4.44,1.92; stroke-dashoffset: 0; stroke: #ff0000; stroke-width: 1.2"/>
   </g>
   <g id="line2d_86">
    <path d="M 386.629142 125.8 
L 386.629142 7.2 
" clip-path="url(#p41a4613005)" style="fill: none; stroke-dasharray: 4.44,1.92; stroke-dashoffset: 0; stroke: #ff0000; stroke-width: 1.2"/>
   </g>
   <g id="line2d_87">
    <path d="M 467.796842 125.8 
L 467.796842 7.2 
" clip-path="url(#p41a4613005)" style="fill: none; stroke-dasharray: 4.44,1.92; stroke-dashoffset: 0; stroke: #ff0000; stroke-width: 1.2"/>
   </g>
   <g id="line2d_88">
    <path d="M 548.964542 125.8 
L 548.964542 7.2 
" clip-path="url(#p41a4613005)" style="fill: none; stroke-dasharray: 4.44,1.92; stroke-dashoffset: 0; stroke: #ff0000; stroke-width: 1.2"/>
   </g>
   <g id="line2d_89">
    <path d="M 55.139375 99.858818 
L 57.288012 97.059624 
L 61.585285 72.976378 
L 63.733921 85.863966 
L 65.882558 94.204762 
L 68.031194 97.874799 
L 70.179831 94.337556 
L 72.328467 93.724218 
L 74.477104 95.037004 
L 76.62574 91.715808 
L 78.774377 94.469238 
L 80.923014 95.763484 
L 83.07165 94.84187 
L 85.220287 95.712638 
L 87.368923 92.98358 
L 89.51756 92.178123 
L 91.666196 94.464741 
L 93.814833 91.986075 
L 95.963469 93.31498 
L 98.112106 86.962082 
L 100.260743 84.99549 
L 102.409379 91.438151 
L 104.558016 86.523945 
L 106.706652 89.696773 
L 108.855289 89.494201 
L 111.003925 87.176785 
L 113.152562 88.239636 
L 115.301198 86.155233 
L 117.449835 86.645848 
L 119.598471 83.09839 
L 121.747108 77.600792 
L 123.895745 81.666825 
L 126.044381 79.529374 
L 128.193018 77.995309 
L 130.341654 76.081321 
L 134.638927 70.543343 
L 136.787564 66.551586 
L 138.9362 60.9407 
L 141.084837 50.85677 
L 143.233473 10.429511 
L 145.38211 52.177325 
L 147.530747 61.589907 
L 149.679383 67.158195 
L 151.82802 70.577759 
L 153.976656 73.710323 
L 156.125293 75.757245 
L 158.273929 78.447216 
L 160.422566 79.954049 
L 162.571202 77.658725 
L 164.719839 64.183753 
L 166.868476 76.283999 
L 169.017112 83.461141 
L 171.165749 86.254173 
L 173.314385 87.076507 
L 175.463022 86.502848 
L 177.611658 87.134127 
L 179.760295 89.996994 
L 181.908931 89.208433 
L 184.057568 90.067557 
L 186.206204 87.30702 
L 188.354841 85.269603 
L 190.503478 93.388875 
L 192.652114 91.505442 
L 194.800751 91.246652 
L 196.949387 90.380387 
L 199.098024 90.907931 
L 201.24666 97.429161 
L 203.395297 93.611083 
L 205.543933 97.200154 
L 207.69257 96.542401 
L 209.841207 89.274416 
L 211.989843 98.291556 
L 214.13848 95.42806 
L 216.287116 93.98538 
L 218.435753 100.12946 
L 220.584389 92.155764 
L 222.733026 83.533551 
L 224.881662 72.945131 
L 227.030299 81.389655 
L 229.178935 93.652314 
L 231.327572 78.06676 
L 233.476209 94.806705 
L 235.624845 98.791183 
L 237.773482 96.464604 
L 239.922118 98.779848 
L 242.070755 99.95844 
L 244.219391 101.489355 
L 246.368028 98.953882 
L 248.516664 92.27159 
L 250.665301 101.493781 
L 252.813937 98.251028 
L 254.962574 98.458691 
L 257.111211 102.350907 
L 259.259847 98.740232 
L 261.408484 103.155616 
L 263.55712 99.778491 
L 265.705757 98.368456 
L 267.854393 102.758655 
L 270.00303 98.232359 
L 272.151666 100.528141 
L 274.300303 99.496165 
L 276.44894 97.540119 
L 278.597576 103.174904 
L 280.746213 101.229548 
L 282.894849 100.940847 
L 285.043486 103.145883 
L 287.192122 99.505956 
L 289.340759 105.682568 
L 291.489395 99.49019 
L 293.638032 101.135033 
L 295.786668 104.913163 
L 297.935305 92.390938 
L 300.083942 100.354577 
L 302.232578 97.824851 
L 304.381215 91.686759 
L 306.529851 102.774265 
L 308.678488 96.204229 
L 310.827124 103.905833 
L 312.975761 104.936009 
L 315.124397 101.781085 
L 317.273034 106.227413 
L 319.42167 98.966093 
L 321.570307 105.815381 
L 323.718944 108.271257 
L 325.86758 102.340412 
L 328.016217 110.11822 
L 330.164853 99.435704 
L 332.31349 106.558497 
L 334.462126 111.644229 
L 336.610763 99.253272 
L 338.759399 102.817528 
L 340.908036 88.969345 
L 343.056673 95.475533 
L 345.205309 105.475287 
L 347.353946 101.222452 
L 349.502582 105.775232 
L 351.651219 103.321065 
L 353.799855 97.594726 
L 355.948492 104.894502 
L 358.097128 99.422251 
L 360.245765 101.352299 
L 362.394401 99.220634 
L 364.543038 97.766263 
L 366.691675 109.895758 
L 368.840311 101.702953 
L 370.988948 103.259903 
L 373.137584 106.457133 
L 375.286221 101.185665 
L 377.434857 107.533638 
L 379.583494 103.981827 
L 381.73213 103.734014 
L 383.880767 108.867839 
L 386.029403 99.327383 
L 388.17804 106.786139 
L 390.326677 104.061994 
L 392.475313 101.721002 
L 394.62395 109.314021 
L 396.772586 102.500065 
L 398.921223 105.682916 
L 401.069859 107.402228 
L 403.218496 97.974661 
L 405.367132 106.674399 
L 407.515769 90.168982 
L 409.664406 107.020186 
L 411.813042 104.247794 
L 413.961679 101.056841 
L 416.110315 107.467038 
L 418.258952 103.258834 
L 420.407588 102.374748 
L 422.556225 110.070717 
L 424.704861 98.07002 
L 426.853498 109.77276 
L 429.002134 103.478791 
L 431.150771 103.330159 
L 433.299408 109.033772 
L 435.448044 103.42921 
L 437.596681 104.385331 
L 439.745317 103.547095 
L 441.893954 101.030836 
L 444.04259 109.973268 
L 446.191227 106.19272 
L 448.339863 106.01499 
L 450.4885 106.737691 
L 452.637136 101.499942 
L 454.785773 109.405363 
L 456.93441 102.373804 
L 459.083046 102.215079 
L 461.231683 107.850177 
L 463.380319 100.102622 
L 465.528956 109.601078 
L 467.677592 99.49528 
L 469.826229 99.782375 
L 471.974865 107.644845 
L 474.123502 98.849776 
L 476.272139 104.571982 
L 478.420775 98.71978 
L 480.569412 97.914009 
L 482.718048 97.264294 
L 484.866685 94.613454 
L 487.015321 92.184895 
L 489.163958 87.069472 
L 491.312594 81.233809 
L 493.461231 69.368871 
L 495.609867 54.108066 
L 497.758504 75.916353 
L 499.907141 83.816777 
L 502.055777 87.118522 
L 506.35305 95.548204 
L 508.501687 96.745577 
L 510.650323 98.577468 
L 512.79896 95.854568 
L 514.947596 100.768848 
L 517.096233 100.936929 
L 519.24487 99.810591 
L 521.393506 103.709242 
L 523.542143 100.511453 
L 525.690779 103.230942 
L 527.839416 104.573305 
L 529.988052 100.064627 
L 532.136689 106.735887 
L 534.285325 104.150848 
L 536.433962 99.73637 
L 538.582598 101.553207 
L 540.731235 89.871272 
L 542.879872 107.618568 
L 545.028508 100.253517 
L 547.177145 99.800222 
L 549.325781 110.543659 
L 551.474418 98.782412 
L 553.623054 108.740812 
L 555.771691 102.052221 
L 557.920327 98.88469 
L 560.068964 108.504461 
L 562.2176 96.273912 
L 564.366237 105.178041 
L 566.514874 105.638014 
L 568.66351 99.603037 
L 570.812147 108.229042 
L 572.960783 101.080312 
L 575.10942 100.572396 
L 577.258056 103.679703 
L 579.406693 96.606468 
L 581.555329 90.76619 
L 583.703966 79.344788 
L 583.703966 79.344788 
" clip-path="url(#p41a4613005)" style="fill: none; stroke: #1f77b4; stroke-width: 1.2; stroke-linecap: square"/>
   </g>
   <g id="line2d_90">
    <path d="M 55.139375 98.488304 
L 57.288012 96.85236 
L 59.436648 98.310784 
L 61.585285 96.450194 
L 63.733921 97.449024 
L 65.882558 97.078436 
L 68.031194 98.433003 
L 70.179831 96.91102 
L 72.328467 95.870793 
L 74.477104 95.948783 
L 76.62574 95.334312 
L 78.774377 96.89835 
L 80.923014 94.789152 
L 83.07165 96.740654 
L 85.220287 95.223927 
L 87.368923 93.888166 
L 89.51756 90.972008 
L 91.666196 94.0233 
L 93.814833 93.969043 
L 95.963469 93.00582 
L 98.112106 87.90013 
L 100.260743 91.729335 
L 102.409379 90.149866 
L 104.558016 90.946396 
L 106.706652 86.891743 
L 108.855289 91.360565 
L 111.003925 89.130158 
L 113.152562 87.710356 
L 115.301198 85.22567 
L 117.449835 87.837208 
L 119.598471 84.16152 
L 121.747108 76.579155 
L 123.895745 80.669035 
L 126.044381 81.886622 
L 128.193018 78.98731 
L 130.341654 76.503823 
L 132.490291 73.086684 
L 134.638927 70.874567 
L 136.787564 66.94536 
L 138.9362 61.118936 
L 141.084837 50.836908 
L 143.233473 10.428091 
L 145.38211 52.08652 
L 147.530747 61.5092 
L 149.679383 67.233698 
L 151.82802 71.456681 
L 153.976656 74.301934 
L 156.125293 75.996095 
L 158.273929 78.684683 
L 160.422566 82.562887 
L 162.571202 78.557809 
L 164.719839 69.727633 
L 166.868476 81.222965 
L 169.017112 86.522638 
L 171.165749 85.364529 
L 173.314385 86.668227 
L 175.463022 88.970043 
L 177.611658 90.908768 
L 179.760295 88.16645 
L 181.908931 90.225574 
L 184.057568 91.46045 
L 186.206204 90.475034 
L 188.354841 89.356962 
L 190.503478 92.662799 
L 192.652114 92.767086 
L 194.800751 92.712984 
L 196.949387 95.109496 
L 199.098024 94.317723 
L 201.24666 95.967654 
L 203.395297 96.265328 
L 205.543933 97.390231 
L 209.841207 95.228906 
L 211.989843 96.968394 
L 214.13848 99.554156 
L 216.287116 98.315091 
L 218.435753 98.335105 
L 220.584389 99.184421 
L 222.733026 99.146801 
L 224.881662 100.107096 
L 227.030299 99.699246 
L 229.178935 99.856949 
L 231.327572 75.081676 
L 233.476209 98.708588 
L 235.624845 98.998925 
L 237.773482 100.288425 
L 239.922118 97.449098 
L 242.070755 100.229521 
L 244.219391 100.837574 
L 246.368028 103.402781 
L 248.516664 98.910075 
L 250.665301 104.693039 
L 252.813937 101.354419 
L 254.962574 104.209115 
L 257.111211 100.192744 
L 259.259847 105.543402 
L 261.408484 104.944409 
L 263.55712 104.528827 
L 265.705757 103.437017 
L 267.854393 107.412559 
L 270.00303 106.351393 
L 272.151666 106.186487 
L 274.300303 102.768605 
L 276.44894 107.311976 
L 278.597576 105.50185 
L 280.746213 106.216172 
L 282.894849 105.666936 
L 285.043486 108.346702 
L 287.192122 105.226907 
L 289.340759 107.209438 
L 291.489395 107.128667 
L 293.638032 106.675779 
L 295.786668 103.000792 
L 297.935305 90.723699 
L 300.083942 106.934642 
L 302.232578 108.517869 
L 304.381215 105.784464 
L 306.529851 107.792633 
L 308.678488 107.664743 
L 310.827124 106.572826 
L 312.975761 106.771803 
L 315.124397 107.254438 
L 317.273034 105.578385 
L 319.42167 88.207767 
L 321.570307 108.587956 
L 323.718944 108.211709 
L 328.016217 108.758586 
L 330.164853 110.473685 
L 332.31349 110.208987 
L 334.462126 108.807137 
L 336.610763 108.473139 
L 338.759399 101.901142 
L 340.908036 91.811806 
L 345.205309 107.698506 
L 347.353946 109.169217 
L 349.502582 110.003589 
L 351.651219 110.036833 
L 353.799855 108.74473 
L 355.948492 111.200982 
L 358.097128 111.432658 
L 360.245765 111.825027 
L 362.394401 110.791942 
L 364.543038 112.246212 
L 366.691675 109.756652 
L 368.840311 107.762874 
L 370.988948 110.185368 
L 373.137584 114.832188 
L 375.286221 110.219136 
L 377.434857 108.159789 
L 379.583494 112.443014 
L 381.73213 107.293428 
L 383.880767 108.872162 
L 386.029403 109.831817 
L 388.17804 112.528774 
L 390.326677 108.835298 
L 392.475313 108.543748 
L 394.62395 110.480173 
L 396.772586 103.486921 
L 398.921223 107.974779 
L 401.069859 107.111514 
L 403.218496 110.196209 
L 405.367132 106.696877 
L 407.515769 91.501711 
L 409.664406 109.778266 
L 411.813042 109.698686 
L 413.961679 109.387015 
L 416.110315 103.810738 
L 420.407588 110.141445 
L 422.556225 111.632443 
L 424.704861 107.106325 
L 426.853498 107.459871 
L 429.002134 105.14414 
L 431.150771 111.557295 
L 433.299408 109.121662 
L 435.448044 111.624051 
L 437.596681 111.647713 
L 439.745317 110.308888 
L 441.893954 110.629721 
L 444.04259 113.305599 
L 446.191227 108.786464 
L 448.339863 111.10864 
L 452.637136 105.237977 
L 454.785773 108.907455 
L 456.93441 111.305518 
L 459.083046 106.579614 
L 461.231683 109.051115 
L 463.380319 107.580957 
L 465.528956 107.382032 
L 467.677592 105.258129 
L 469.826229 107.10014 
L 471.974865 106.115684 
L 474.123502 102.193323 
L 476.272139 101.041467 
L 478.420775 104.366464 
L 480.569412 100.339595 
L 482.718048 98.152184 
L 484.866685 95.295893 
L 487.015321 94.674308 
L 489.163958 89.330208 
L 491.312594 82.278767 
L 493.461231 70.244985 
L 495.609867 54.912468 
L 497.758504 76.660571 
L 499.907141 84.610697 
L 502.055777 89.758256 
L 504.204414 91.391509 
L 506.35305 94.330259 
L 508.501687 97.660535 
L 510.650323 99.145789 
L 512.79896 100.162542 
L 514.947596 104.114026 
L 517.096233 99.148627 
L 519.24487 102.634841 
L 521.393506 103.716026 
L 523.542143 107.407497 
L 525.690779 106.459248 
L 527.839416 107.316863 
L 529.988052 108.5913 
L 532.136689 108.828732 
L 534.285325 109.319297 
L 536.433962 107.660799 
L 538.582598 111.012429 
L 540.731235 110.969608 
L 542.879872 109.031945 
L 545.028508 110.286627 
L 547.177145 111.815497 
L 549.325781 110.87452 
L 551.474418 109.465646 
L 553.623054 111.008051 
L 555.771691 112.201053 
L 557.920327 107.620814 
L 560.068964 111.136647 
L 562.2176 104.12634 
L 564.366237 112.786821 
L 566.514874 107.65946 
L 568.66351 108.78136 
L 572.960783 109.912513 
L 575.10942 105.636298 
L 577.258056 104.058174 
L 579.406693 98.865427 
L 581.555329 86.850585 
L 583.703966 75.741702 
L 583.703966 75.741702 
" clip-path="url(#p41a4613005)" style="fill: none; stroke-dasharray: 4.44,1.92; stroke-dashoffset: 0; stroke: #ff7f0e; stroke-width: 1.2"/>
   </g>
   <g id="patch_3">
    <path d="M 55.139375 125.8 
L 55.139375 7.2 
" style="fill: none; stroke: #000000; stroke-width: 0.8; stroke-linejoin: miter; stroke-linecap: square"/>
   </g>
   <g id="patch_4">
    <path d="M 583.059375 125.8 
L 583.059375 7.2 
" style="fill: none; stroke: #000000; stroke-width: 0.8; stroke-linejoin: miter; stroke-linecap: square"/>
   </g>
   <g id="patch_5">
    <path d="M 55.139375 125.8 
L 583.059375 125.8 
" style="fill: none; stroke: #000000; stroke-width: 0.8; stroke-linejoin: miter; stroke-linecap: square"/>
   </g>
   <g id="patch_6">
    <path d="M 55.139375 7.2 
L 583.059375 7.2 
" style="fill: none; stroke: #000000; stroke-width: 0.8; stroke-linejoin: miter; stroke-linecap: square"/>
   </g>
   <g id="text_14">
    <!-- fs-fo -->
    <g style="fill: #ff0000" transform="translate(66.357675 44.653646) scale(0.1 -0.1)">
     <defs>
      <path id="DejaVuSans-66" d="M 2375 4863 
L 2375 4384 
L 1825 4384 
Q 1516 4384 1395 4259 
Q 1275 4134 1275 3809 
L 1275 3500 
L 2222 3500 
L 2222 3053 
L 1275 3053 
L 1275 0 
L 697 0 
L 697 3053 
L 147 3053 
L 147 3500 
L 697 3500 
L 697 3744 
Q 697 4328 969 4595 
Q 1241 4863 1831 4863 
L 2375 4863 
z
" transform="scale(0.015625)"/>
      <path id="DejaVuSans-73" d="M 2834 3397 
L 2834 2853 
Q 2591 2978 2328 3040 
Q 2066 3103 1784 3103 
Q 1356 3103 1142 2972 
Q 928 2841 928 2578 
Q 928 2378 1081 2264 
Q 1234 2150 1697 2047 
L 1894 2003 
Q 2506 1872 2764 1633 
Q 3022 1394 3022 966 
Q 3022 478 2636 193 
Q 2250 -91 1575 -91 
Q 1294 -91 989 -36 
Q 684 19 347 128 
L 347 722 
Q 666 556 975 473 
Q 1284 391 1588 391 
Q 1994 391 2212 530 
Q 2431 669 2431 922 
Q 2431 1156 2273 1281 
Q 2116 1406 1581 1522 
L 1381 1569 
Q 847 1681 609 1914 
Q 372 2147 372 2553 
Q 372 3047 722 3315 
Q 1072 3584 1716 3584 
Q 2034 3584 2315 3537 
Q 2597 3491 2834 3397 
z
" transform="scale(0.015625)"/>
      <path id="DejaVuSans-2d" d="M 313 2009 
L 1997 2009 
L 1997 1497 
L 313 1497 
L 313 2009 
z
" transform="scale(0.015625)"/>
      <path id="DejaVuSans-6f" d="M 1959 3097 
Q 1497 3097 1228 2736 
Q 959 2375 959 1747 
Q 959 1119 1226 758 
Q 1494 397 1959 397 
Q 2419 397 2687 759 
Q 2956 1122 2956 1747 
Q 2956 2369 2687 2733 
Q 2419 3097 1959 3097 
z
M 1959 3584 
Q 2709 3584 3137 3096 
Q 3566 2609 3566 1747 
Q 3566 888 3137 398 
Q 2709 -91 1959 -91 
Q 1206 -91 779 398 
Q 353 888 353 1747 
Q 353 2609 779 3096 
Q 1206 3584 1959 3584 
z
" transform="scale(0.015625)"/>
     </defs>
     <use xlink:href="#DejaVuSans-66"/>
     <use xlink:href="#DejaVuSans-73" x="35.205078"/>
     <use xlink:href="#DejaVuSans-2d" x="87.304688"/>
     <use xlink:href="#DejaVuSans-66" x="123.388672"/>
     <use xlink:href="#DejaVuSans-6f" x="158.59375"/>
    </g>
   </g>
   <g id="text_15">
    <!-- fs+fo -->
    <g style="fill: #ff0000" transform="translate(228.693075 44.653646) scale(0.1 -0.1)">
     <defs>
      <path id="DejaVuSans-2b" d="M 2944 4013 
L 2944 2272 
L 4684 2272 
L 4684 1741 
L 2944 1741 
L 2944 0 
L 2419 0 
L 2419 1741 
L 678 1741 
L 678 2272 
L 2419 2272 
L 2419 4013 
L 2944 4013 
z
" transform="scale(0.015625)"/>
     </defs>
     <use xlink:href="#DejaVuSans-66"/>
     <use xlink:href="#DejaVuSans-73" x="35.205078"/>
     <use xlink:href="#DejaVuSans-2b" x="87.304688"/>
     <use xlink:href="#DejaVuSans-66" x="171.09375"/>
     <use xlink:href="#DejaVuSans-6f" x="206.298828"/>
    </g>
   </g>
   <g id="text_16">
    <!-- fs+2fo -->
    <g style="fill: #ff0000" transform="translate(309.860775 44.653646) scale(0.1 -0.1)">
     <use xlink:href="#DejaVuSans-66"/>
     <use xlink:href="#DejaVuSans-73" x="35.205078"/>
     <use xlink:href="#DejaVuSans-2b" x="87.304688"/>
     <use xlink:href="#DejaVuSans-32" x="171.09375"/>
     <use xlink:href="#DejaVuSans-66" x="234.716797"/>
     <use xlink:href="#DejaVuSans-6f" x="269.921875"/>
    </g>
   </g>
   <g id="text_17">
    <!-- fs+3fo -->
    <g style="fill: #ff0000" transform="translate(391.028475 44.653646) scale(0.1 -0.1)">
     <defs>
      <path id="DejaVuSans-33" d="M 2597 2516 
Q 3050 2419 3304 2112 
Q 3559 1806 3559 1356 
Q 3559 666 3084 287 
Q 2609 -91 1734 -91 
Q 1441 -91 1130 -33 
Q 819 25 488 141 
L 488 750 
Q 750 597 1062 519 
Q 1375 441 1716 441 
Q 2309 441 2620 675 
Q 2931 909 2931 1356 
Q 2931 1769 2642 2001 
Q 2353 2234 1838 2234 
L 1294 2234 
L 1294 2753 
L 1863 2753 
Q 2328 2753 2575 2939 
Q 2822 3125 2822 3475 
Q 2822 3834 2567 4026 
Q 2313 4219 1838 4219 
Q 1578 4219 1281 4162 
Q 984 4106 628 3988 
L 628 4550 
Q 988 4650 1302 4700 
Q 1616 4750 1894 4750 
Q 2613 4750 3031 4423 
Q 3450 4097 3450 3541 
Q 3450 3153 3228 2886 
Q 3006 2619 2597 2516 
z
" transform="scale(0.015625)"/>
     </defs>
     <use xlink:href="#DejaVuSans-66"/>
     <use xlink:href="#DejaVuSans-73" x="35.205078"/>
     <use xlink:href="#DejaVuSans-2b" x="87.304688"/>
     <use xlink:href="#DejaVuSans-33" x="171.09375"/>
     <use xlink:href="#DejaVuSans-66" x="234.716797"/>
     <use xlink:href="#DejaVuSans-6f" x="269.921875"/>
    </g>
   </g>
   <g id="text_18">
    <!-- fs+4fo -->
    <g style="fill: #ff0000" transform="translate(472.196175 44.653646) scale(0.1 -0.1)">
     <use xlink:href="#DejaVuSans-66"/>
     <use xlink:href="#DejaVuSans-73" x="35.205078"/>
     <use xlink:href="#DejaVuSans-2b" x="87.304688"/>
     <use xlink:href="#DejaVuSans-34" x="171.09375"/>
     <use xlink:href="#DejaVuSans-66" x="234.716797"/>
     <use xlink:href="#DejaVuSans-6f" x="269.921875"/>
    </g>
   </g>
   <g id="text_19">
    <!-- fs+5fo -->
    <g style="fill: #ff0000" transform="translate(553.363875 44.653646) scale(0.1 -0.1)">
     <defs>
      <path id="DejaVuSans-35" d="M 691 4666 
L 3169 4666 
L 3169 4134 
L 1269 4134 
L 1269 2991 
Q 1406 3038 1543 3061 
Q 1681 3084 1819 3084 
Q 2600 3084 3056 2656 
Q 3513 2228 3513 1497 
Q 3513 744 3044 326 
Q 2575 -91 1722 -91 
Q 1428 -91 1123 -41 
Q 819 9 494 109 
L 494 744 
Q 775 591 1075 516 
Q 1375 441 1709 441 
Q 2250 441 2565 725 
Q 2881 1009 2881 1497 
Q 2881 1984 2565 2268 
Q 2250 2553 1709 2553 
Q 1456 2553 1204 2497 
Q 953 2441 691 2322 
L 691 4666 
z
" transform="scale(0.015625)"/>
     </defs>
     <use xlink:href="#DejaVuSans-66"/>
     <use xlink:href="#DejaVuSans-73" x="35.205078"/>
     <use xlink:href="#DejaVuSans-2b" x="87.304688"/>
     <use xlink:href="#DejaVuSans-35" x="171.09375"/>
     <use xlink:href="#DejaVuSans-66" x="234.716797"/>
     <use xlink:href="#DejaVuSans-6f" x="269.921875"/>
    </g>
   </g>
  </g>
 </g>
 <defs>
  <clipPath id="p41a4613005">
   <rect x="55.139375" y="7.2" width="527.92" height="118.6"/>
  </clipPath>
 </defs>
</svg>
