<?xml version="1.0" encoding="utf-8" standalone="no"?>
<!DOCTYPE svg PUBLIC "-//W3C//DTD SVG 1.1//EN"
  "http://www.w3.org/Graphics/SVG/1.1/DTD/svg11.dtd">
<svg xmlns:xlink="http://www.w3.org/1999/xlink" width="1072.690938pt" height="424.53875pt" viewBox="0 0 1072.690938 424.53875" xmlns="http://www.w3.org/2000/svg" version="1.1">
 <metadata>
  <rdf:RDF xmlns:dc="http://purl.org/dc/elements/1.1/" xmlns:cc="http://creativecommons.org/ns#" xmlns:rdf="http://www.w3.org/1999/02/22-rdf-syntax-ns#">
   <cc:Work>
    <dc:type rdf:resource="http://purl.org/dc/dcmitype/StillImage"/>
    <dc:date>2025-10-01T15:21:20.393967</dc:date>
    <dc:format>image/svg+xml</dc:format>
    <dc:creator>
     <cc:Agent>
      <dc:title>Matplotlib v3.9.2, https://matplotlib.org/</dc:title>
     </cc:Agent>
    </dc:creator>
   </cc:Work>
  </rdf:RDF>
 </metadata>
 <defs>
  <style type="text/css">*{stroke-linejoin: round; stroke-linecap: butt}</style>
 </defs>
 <g id="figure_1">
  <g id="patch_1">
   <path d="M 0 424.53875 
L 1072.690938 424.53875 
L 1072.690938 0 
L 0 0 
z
" style="fill: #ffffff"/>
  </g>
  <g id="axes_1">
   <g id="patch_2">
    <path d="M 61.295938 379.24 
L 1047.675937 379.24 
L 1047.675937 7.2 
L 61.295938 7.2 
z
" style="fill: #ffffff"/>
   </g>
   <g id="matplotlib.axis_1">
    <g id="xtick_1">
     <g id="line2d_1">
      <path d="M 61.295938 379.24 
L 61.295938 7.2 
" clip-path="url(#pf32416f35f)" style="fill: none; stroke: #b0b0b0; stroke-width: 0.5; stroke-linecap: square"/>
     </g>
     <g id="line2d_2">
      <defs>
       <path id="m2afd6658cb" d="M 0 0 
L 0 3.5 
" style="stroke: #000000; stroke-width: 0.8"/>
      </defs>
      <g>
       <use xlink:href="#m2afd6658cb" x="61.295938" y="379.24" style="stroke: #000000; stroke-width: 0.8"/>
      </g>
     </g>
     <g id="text_1">
      <!-- 0 -->
      <g transform="translate(56.842188 396.877812) scale(0.14 -0.14)">
       <defs>
        <path id="DejaVuSans-30" d="M 2034 4250 
Q 1547 4250 1301 3770 
Q 1056 3291 1056 2328 
Q 1056 1369 1301 889 
Q 1547 409 2034 409 
Q 2525 409 2770 889 
Q 3016 1369 3016 2328 
Q 3016 3291 2770 3770 
Q 2525 4250 2034 4250 
z
M 2034 4750 
Q 2819 4750 3233 4129 
Q 3647 3509 3647 2328 
Q 3647 1150 3233 529 
Q 2819 -91 2034 -91 
Q 1250 -91 836 529 
Q 422 1150 422 2328 
Q 422 3509 836 4129 
Q 1250 4750 2034 4750 
z
" transform="scale(0.015625)"/>
       </defs>
       <use xlink:href="#DejaVuSans-30"/>
      </g>
     </g>
    </g>
    <g id="xtick_2">
     <g id="line2d_3">
      <path d="M 225.692604 379.24 
L 225.692604 7.2 
" clip-path="url(#pf32416f35f)" style="fill: none; stroke: #b0b0b0; stroke-width: 0.5; stroke-linecap: square"/>
     </g>
     <g id="line2d_4">
      <g>
       <use xlink:href="#m2afd6658cb" x="225.692604" y="379.24" style="stroke: #000000; stroke-width: 0.8"/>
      </g>
     </g>
     <g id="text_2">
      <!-- 200 -->
      <g transform="translate(212.331354 396.877812) scale(0.14 -0.14)">
       <defs>
        <path id="DejaVuSans-32" d="M 1228 531 
L 3431 531 
L 3431 0 
L 469 0 
L 469 531 
Q 828 903 1448 1529 
Q 2069 2156 2228 2338 
Q 2531 2678 2651 2914 
Q 2772 3150 2772 3378 
Q 2772 3750 2511 3984 
Q 2250 4219 1831 4219 
Q 1534 4219 1204 4116 
Q 875 4013 500 3803 
L 500 4441 
Q 881 4594 1212 4672 
Q 1544 4750 1819 4750 
Q 2544 4750 2975 4387 
Q 3406 4025 3406 3419 
Q 3406 3131 3298 2873 
Q 3191 2616 2906 2266 
Q 2828 2175 2409 1742 
Q 1991 1309 1228 531 
z
" transform="scale(0.015625)"/>
       </defs>
       <use xlink:href="#DejaVuSans-32"/>
       <use xlink:href="#DejaVuSans-30" x="63.623047"/>
       <use xlink:href="#DejaVuSans-30" x="127.246094"/>
      </g>
     </g>
    </g>
    <g id="xtick_3">
     <g id="line2d_5">
      <path d="M 390.089271 379.24 
L 390.089271 7.2 
" clip-path="url(#pf32416f35f)" style="fill: none; stroke: #b0b0b0; stroke-width: 0.5; stroke-linecap: square"/>
     </g>
     <g id="line2d_6">
      <g>
       <use xlink:href="#m2afd6658cb" x="390.089271" y="379.24" style="stroke: #000000; stroke-width: 0.8"/>
      </g>
     </g>
     <g id="text_3">
      <!-- 400 -->
      <g transform="translate(376.728021 396.877812) scale(0.14 -0.14)">
       <defs>
        <path id="DejaVuSans-34" d="M 2419 4116 
L 825 1625 
L 2419 1625 
L 2419 4116 
z
M 2253 4666 
L 3047 4666 
L 3047 1625 
L 3713 1625 
L 3713 1100 
L 3047 1100 
L 3047 0 
L 2419 0 
L 2419 1100 
L 313 1100 
L 313 1709 
L 2253 4666 
z
" transform="scale(0.015625)"/>
       </defs>
       <use xlink:href="#DejaVuSans-34"/>
       <use xlink:href="#DejaVuSans-30" x="63.623047"/>
       <use xlink:href="#DejaVuSans-30" x="127.246094"/>
      </g>
     </g>
    </g>
    <g id="xtick_4">
     <g id="line2d_7">
      <path d="M 554.485937 379.24 
L 554.485937 7.2 
" clip-path="url(#pf32416f35f)" style="fill: none; stroke: #b0b0b0; stroke-width: 0.5; stroke-linecap: square"/>
     </g>
     <g id="line2d_8">
      <g>
       <use xlink:href="#m2afd6658cb" x="554.485937" y="379.24" style="stroke: #000000; stroke-width: 0.8"/>
      </g>
     </g>
     <g id="text_4">
      <!-- 600 -->
      <g transform="translate(541.124687 396.877812) scale(0.14 -0.14)">
       <defs>
        <path id="DejaVuSans-36" d="M 2113 2584 
Q 1688 2584 1439 2293 
Q 1191 2003 1191 1497 
Q 1191 994 1439 701 
Q 1688 409 2113 409 
Q 2538 409 2786 701 
Q 3034 994 3034 1497 
Q 3034 2003 2786 2293 
Q 2538 2584 2113 2584 
z
M 3366 4563 
L 3366 3988 
Q 3128 4100 2886 4159 
Q 2644 4219 2406 4219 
Q 1781 4219 1451 3797 
Q 1122 3375 1075 2522 
Q 1259 2794 1537 2939 
Q 1816 3084 2150 3084 
Q 2853 3084 3261 2657 
Q 3669 2231 3669 1497 
Q 3669 778 3244 343 
Q 2819 -91 2113 -91 
Q 1303 -91 875 529 
Q 447 1150 447 2328 
Q 447 3434 972 4092 
Q 1497 4750 2381 4750 
Q 2619 4750 2861 4703 
Q 3103 4656 3366 4563 
z
" transform="scale(0.015625)"/>
       </defs>
       <use xlink:href="#DejaVuSans-36"/>
       <use xlink:href="#DejaVuSans-30" x="63.623047"/>
       <use xlink:href="#DejaVuSans-30" x="127.246094"/>
      </g>
     </g>
    </g>
    <g id="xtick_5">
     <g id="line2d_9">
      <path d="M 718.882604 379.24 
L 718.882604 7.2 
" clip-path="url(#pf32416f35f)" style="fill: none; stroke: #b0b0b0; stroke-width: 0.5; stroke-linecap: square"/>
     </g>
     <g id="line2d_10">
      <g>
       <use xlink:href="#m2afd6658cb" x="718.882604" y="379.24" style="stroke: #000000; stroke-width: 0.8"/>
      </g>
     </g>
     <g id="text_5">
      <!-- 800 -->
      <g transform="translate(705.521354 396.877812) scale(0.14 -0.14)">
       <defs>
        <path id="DejaVuSans-38" d="M 2034 2216 
Q 1584 2216 1326 1975 
Q 1069 1734 1069 1313 
Q 1069 891 1326 650 
Q 1584 409 2034 409 
Q 2484 409 2743 651 
Q 3003 894 3003 1313 
Q 3003 1734 2745 1975 
Q 2488 2216 2034 2216 
z
M 1403 2484 
Q 997 2584 770 2862 
Q 544 3141 544 3541 
Q 544 4100 942 4425 
Q 1341 4750 2034 4750 
Q 2731 4750 3128 4425 
Q 3525 4100 3525 3541 
Q 3525 3141 3298 2862 
Q 3072 2584 2669 2484 
Q 3125 2378 3379 2068 
Q 3634 1759 3634 1313 
Q 3634 634 3220 271 
Q 2806 -91 2034 -91 
Q 1263 -91 848 271 
Q 434 634 434 1313 
Q 434 1759 690 2068 
Q 947 2378 1403 2484 
z
M 1172 3481 
Q 1172 3119 1398 2916 
Q 1625 2713 2034 2713 
Q 2441 2713 2670 2916 
Q 2900 3119 2900 3481 
Q 2900 3844 2670 4047 
Q 2441 4250 2034 4250 
Q 1625 4250 1398 4047 
Q 1172 3844 1172 3481 
z
" transform="scale(0.015625)"/>
       </defs>
       <use xlink:href="#DejaVuSans-38"/>
       <use xlink:href="#DejaVuSans-30" x="63.623047"/>
       <use xlink:href="#DejaVuSans-30" x="127.246094"/>
      </g>
     </g>
    </g>
    <g id="xtick_6">
     <g id="line2d_11">
      <path d="M 883.279271 379.24 
L 883.279271 7.2 
" clip-path="url(#pf32416f35f)" style="fill: none; stroke: #b0b0b0; stroke-width: 0.5; stroke-linecap: square"/>
     </g>
     <g id="line2d_12">
      <g>
       <use xlink:href="#m2afd6658cb" x="883.279271" y="379.24" style="stroke: #000000; stroke-width: 0.8"/>
      </g>
     </g>
     <g id="text_6">
      <!-- 1000 -->
      <g transform="translate(865.464271 396.877812) scale(0.14 -0.14)">
       <defs>
        <path id="DejaVuSans-31" d="M 794 531 
L 1825 531 
L 1825 4091 
L 703 3866 
L 703 4441 
L 1819 4666 
L 2450 4666 
L 2450 531 
L 3481 531 
L 3481 0 
L 794 0 
L 794 531 
z
" transform="scale(0.015625)"/>
       </defs>
       <use xlink:href="#DejaVuSans-31"/>
       <use xlink:href="#DejaVuSans-30" x="63.623047"/>
       <use xlink:href="#DejaVuSans-30" x="127.246094"/>
       <use xlink:href="#DejaVuSans-30" x="190.869141"/>
      </g>
     </g>
    </g>
    <g id="xtick_7">
     <g id="line2d_13">
      <path d="M 1047.675937 379.24 
L 1047.675937 7.2 
" clip-path="url(#pf32416f35f)" style="fill: none; stroke: #b0b0b0; stroke-width: 0.5; stroke-linecap: square"/>
     </g>
     <g id="line2d_14">
      <g>
       <use xlink:href="#m2afd6658cb" x="1047.675937" y="379.24" style="stroke: #000000; stroke-width: 0.8"/>
      </g>
     </g>
     <g id="text_7">
      <!-- 1200 -->
      <g transform="translate(1029.860937 396.877812) scale(0.14 -0.14)">
       <use xlink:href="#DejaVuSans-31"/>
       <use xlink:href="#DejaVuSans-32" x="63.623047"/>
       <use xlink:href="#DejaVuSans-30" x="127.246094"/>
       <use xlink:href="#DejaVuSans-30" x="190.869141"/>
      </g>
     </g>
    </g>
    <g id="xtick_8">
     <g id="line2d_15">
      <path d="M 102.395104 379.24 
L 102.395104 7.2 
" clip-path="url(#pf32416f35f)" style="fill: none; stroke: #b0b0b0; stroke-width: 0.5; stroke-linecap: square"/>
     </g>
     <g id="line2d_16">
      <defs>
       <path id="m7b0ed0458f" d="M 0 0 
L 0 2 
" style="stroke: #000000; stroke-width: 0.6"/>
      </defs>
      <g>
       <use xlink:href="#m7b0ed0458f" x="102.395104" y="379.24" style="stroke: #000000; stroke-width: 0.6"/>
      </g>
     </g>
    </g>
    <g id="xtick_9">
     <g id="line2d_17">
      <path d="M 143.494271 379.24 
L 143.494271 7.2 
" clip-path="url(#pf32416f35f)" style="fill: none; stroke: #b0b0b0; stroke-width: 0.5; stroke-linecap: square"/>
     </g>
     <g id="line2d_18">
      <g>
       <use xlink:href="#m7b0ed0458f" x="143.494271" y="379.24" style="stroke: #000000; stroke-width: 0.6"/>
      </g>
     </g>
    </g>
    <g id="xtick_10">
     <g id="line2d_19">
      <path d="M 184.593437 379.24 
L 184.593437 7.2 
" clip-path="url(#pf32416f35f)" style="fill: none; stroke: #b0b0b0; stroke-width: 0.5; stroke-linecap: square"/>
     </g>
     <g id="line2d_20">
      <g>
       <use xlink:href="#m7b0ed0458f" x="184.593437" y="379.24" style="stroke: #000000; stroke-width: 0.6"/>
      </g>
     </g>
    </g>
    <g id="xtick_11">
     <g id="line2d_21">
      <path d="M 266.791771 379.24 
L 266.791771 7.2 
" clip-path="url(#pf32416f35f)" style="fill: none; stroke: #b0b0b0; stroke-width: 0.5; stroke-linecap: square"/>
     </g>
     <g id="line2d_22">
      <g>
       <use xlink:href="#m7b0ed0458f" x="266.791771" y="379.24" style="stroke: #000000; stroke-width: 0.6"/>
      </g>
     </g>
    </g>
    <g id="xtick_12">
     <g id="line2d_23">
      <path d="M 307.890938 379.24 
L 307.890938 7.2 
" clip-path="url(#pf32416f35f)" style="fill: none; stroke: #b0b0b0; stroke-width: 0.5; stroke-linecap: square"/>
     </g>
     <g id="line2d_24">
      <g>
       <use xlink:href="#m7b0ed0458f" x="307.890938" y="379.24" style="stroke: #000000; stroke-width: 0.6"/>
      </g>
     </g>
    </g>
    <g id="xtick_13">
     <g id="line2d_25">
      <path d="M 348.990104 379.24 
L 348.990104 7.2 
" clip-path="url(#pf32416f35f)" style="fill: none; stroke: #b0b0b0; stroke-width: 0.5; stroke-linecap: square"/>
     </g>
     <g id="line2d_26">
      <g>
       <use xlink:href="#m7b0ed0458f" x="348.990104" y="379.24" style="stroke: #000000; stroke-width: 0.6"/>
      </g>
     </g>
    </g>
    <g id="xtick_14">
     <g id="line2d_27">
      <path d="M 431.188437 379.24 
L 431.188437 7.2 
" clip-path="url(#pf32416f35f)" style="fill: none; stroke: #b0b0b0; stroke-width: 0.5; stroke-linecap: square"/>
     </g>
     <g id="line2d_28">
      <g>
       <use xlink:href="#m7b0ed0458f" x="431.188437" y="379.24" style="stroke: #000000; stroke-width: 0.6"/>
      </g>
     </g>
    </g>
    <g id="xtick_15">
     <g id="line2d_29">
      <path d="M 472.287604 379.24 
L 472.287604 7.2 
" clip-path="url(#pf32416f35f)" style="fill: none; stroke: #b0b0b0; stroke-width: 0.5; stroke-linecap: square"/>
     </g>
     <g id="line2d_30">
      <g>
       <use xlink:href="#m7b0ed0458f" x="472.287604" y="379.24" style="stroke: #000000; stroke-width: 0.6"/>
      </g>
     </g>
    </g>
    <g id="xtick_16">
     <g id="line2d_31">
      <path d="M 513.386771 379.24 
L 513.386771 7.2 
" clip-path="url(#pf32416f35f)" style="fill: none; stroke: #b0b0b0; stroke-width: 0.5; stroke-linecap: square"/>
     </g>
     <g id="line2d_32">
      <g>
       <use xlink:href="#m7b0ed0458f" x="513.386771" y="379.24" style="stroke: #000000; stroke-width: 0.6"/>
      </g>
     </g>
    </g>
    <g id="xtick_17">
     <g id="line2d_33">
      <path d="M 595.585104 379.24 
L 595.585104 7.2 
" clip-path="url(#pf32416f35f)" style="fill: none; stroke: #b0b0b0; stroke-width: 0.5; stroke-linecap: square"/>
     </g>
     <g id="line2d_34">
      <g>
       <use xlink:href="#m7b0ed0458f" x="595.585104" y="379.24" style="stroke: #000000; stroke-width: 0.6"/>
      </g>
     </g>
    </g>
    <g id="xtick_18">
     <g id="line2d_35">
      <path d="M 636.684271 379.24 
L 636.684271 7.2 
" clip-path="url(#pf32416f35f)" style="fill: none; stroke: #b0b0b0; stroke-width: 0.5; stroke-linecap: square"/>
     </g>
     <g id="line2d_36">
      <g>
       <use xlink:href="#m7b0ed0458f" x="636.684271" y="379.24" style="stroke: #000000; stroke-width: 0.6"/>
      </g>
     </g>
    </g>
    <g id="xtick_19">
     <g id="line2d_37">
      <path d="M 677.783437 379.24 
L 677.783437 7.2 
" clip-path="url(#pf32416f35f)" style="fill: none; stroke: #b0b0b0; stroke-width: 0.5; stroke-linecap: square"/>
     </g>
     <g id="line2d_38">
      <g>
       <use xlink:href="#m7b0ed0458f" x="677.783437" y="379.24" style="stroke: #000000; stroke-width: 0.6"/>
      </g>
     </g>
    </g>
    <g id="xtick_20">
     <g id="line2d_39">
      <path d="M 759.981771 379.24 
L 759.981771 7.2 
" clip-path="url(#pf32416f35f)" style="fill: none; stroke: #b0b0b0; stroke-width: 0.5; stroke-linecap: square"/>
     </g>
     <g id="line2d_40">
      <g>
       <use xlink:href="#m7b0ed0458f" x="759.981771" y="379.24" style="stroke: #000000; stroke-width: 0.6"/>
      </g>
     </g>
    </g>
    <g id="xtick_21">
     <g id="line2d_41">
      <path d="M 801.080938 379.24 
L 801.080938 7.2 
" clip-path="url(#pf32416f35f)" style="fill: none; stroke: #b0b0b0; stroke-width: 0.5; stroke-linecap: square"/>
     </g>
     <g id="line2d_42">
      <g>
       <use xlink:href="#m7b0ed0458f" x="801.080938" y="379.24" style="stroke: #000000; stroke-width: 0.6"/>
      </g>
     </g>
    </g>
    <g id="xtick_22">
     <g id="line2d_43">
      <path d="M 842.180104 379.24 
L 842.180104 7.2 
" clip-path="url(#pf32416f35f)" style="fill: none; stroke: #b0b0b0; stroke-width: 0.5; stroke-linecap: square"/>
     </g>
     <g id="line2d_44">
      <g>
       <use xlink:href="#m7b0ed0458f" x="842.180104" y="379.24" style="stroke: #000000; stroke-width: 0.6"/>
      </g>
     </g>
    </g>
    <g id="xtick_23">
     <g id="line2d_45">
      <path d="M 924.378438 379.24 
L 924.378438 7.2 
" clip-path="url(#pf32416f35f)" style="fill: none; stroke: #b0b0b0; stroke-width: 0.5; stroke-linecap: square"/>
     </g>
     <g id="line2d_46">
      <g>
       <use xlink:href="#m7b0ed0458f" x="924.378438" y="379.24" style="stroke: #000000; stroke-width: 0.6"/>
      </g>
     </g>
    </g>
    <g id="xtick_24">
     <g id="line2d_47">
      <path d="M 965.477604 379.24 
L 965.477604 7.2 
" clip-path="url(#pf32416f35f)" style="fill: none; stroke: #b0b0b0; stroke-width: 0.5; stroke-linecap: square"/>
     </g>
     <g id="line2d_48">
      <g>
       <use xlink:href="#m7b0ed0458f" x="965.477604" y="379.24" style="stroke: #000000; stroke-width: 0.6"/>
      </g>
     </g>
    </g>
    <g id="xtick_25">
     <g id="line2d_49">
      <path d="M 1006.576771 379.24 
L 1006.576771 7.2 
" clip-path="url(#pf32416f35f)" style="fill: none; stroke: #b0b0b0; stroke-width: 0.5; stroke-linecap: square"/>
     </g>
     <g id="line2d_50">
      <g>
       <use xlink:href="#m7b0ed0458f" x="1006.576771" y="379.24" style="stroke: #000000; stroke-width: 0.6"/>
      </g>
     </g>
    </g>
    <g id="text_8">
     <!-- Frequency (Hz) -->
     <g transform="translate(501.699375 414.427187) scale(0.14 -0.14)">
      <defs>
       <path id="DejaVuSans-46" d="M 628 4666 
L 3309 4666 
L 3309 4134 
L 1259 4134 
L 1259 2759 
L 3109 2759 
L 3109 2228 
L 1259 2228 
L 1259 0 
L 628 0 
L 628 4666 
z
" transform="scale(0.015625)"/>
       <path id="DejaVuSans-72" d="M 2631 2963 
Q 2534 3019 2420 3045 
Q 2306 3072 2169 3072 
Q 1681 3072 1420 2755 
Q 1159 2438 1159 1844 
L 1159 0 
L 581 0 
L 581 3500 
L 1159 3500 
L 1159 2956 
Q 1341 3275 1631 3429 
Q 1922 3584 2338 3584 
Q 2397 3584 2469 3576 
Q 2541 3569 2628 3553 
L 2631 2963 
z
" transform="scale(0.015625)"/>
       <path id="DejaVuSans-65" d="M 3597 1894 
L 3597 1613 
L 953 1613 
Q 991 1019 1311 708 
Q 1631 397 2203 397 
Q 2534 397 2845 478 
Q 3156 559 3463 722 
L 3463 178 
Q 3153 47 2828 -22 
Q 2503 -91 2169 -91 
Q 1331 -91 842 396 
Q 353 884 353 1716 
Q 353 2575 817 3079 
Q 1281 3584 2069 3584 
Q 2775 3584 3186 3129 
Q 3597 2675 3597 1894 
z
M 3022 2063 
Q 3016 2534 2758 2815 
Q 2500 3097 2075 3097 
Q 1594 3097 1305 2825 
Q 1016 2553 972 2059 
L 3022 2063 
z
" transform="scale(0.015625)"/>
       <path id="DejaVuSans-71" d="M 947 1747 
Q 947 1113 1208 752 
Q 1469 391 1925 391 
Q 2381 391 2643 752 
Q 2906 1113 2906 1747 
Q 2906 2381 2643 2742 
Q 2381 3103 1925 3103 
Q 1469 3103 1208 2742 
Q 947 2381 947 1747 
z
M 2906 525 
Q 2725 213 2448 61 
Q 2172 -91 1784 -91 
Q 1150 -91 751 415 
Q 353 922 353 1747 
Q 353 2572 751 3078 
Q 1150 3584 1784 3584 
Q 2172 3584 2448 3432 
Q 2725 3281 2906 2969 
L 2906 3500 
L 3481 3500 
L 3481 -1331 
L 2906 -1331 
L 2906 525 
z
" transform="scale(0.015625)"/>
       <path id="DejaVuSans-75" d="M 544 1381 
L 544 3500 
L 1119 3500 
L 1119 1403 
Q 1119 906 1312 657 
Q 1506 409 1894 409 
Q 2359 409 2629 706 
Q 2900 1003 2900 1516 
L 2900 3500 
L 3475 3500 
L 3475 0 
L 2900 0 
L 2900 538 
Q 2691 219 2414 64 
Q 2138 -91 1772 -91 
Q 1169 -91 856 284 
Q 544 659 544 1381 
z
M 1991 3584 
L 1991 3584 
z
" transform="scale(0.015625)"/>
       <path id="DejaVuSans-6e" d="M 3513 2113 
L 3513 0 
L 2938 0 
L 2938 2094 
Q 2938 2591 2744 2837 
Q 2550 3084 2163 3084 
Q 1697 3084 1428 2787 
Q 1159 2491 1159 1978 
L 1159 0 
L 581 0 
L 581 3500 
L 1159 3500 
L 1159 2956 
Q 1366 3272 1645 3428 
Q 1925 3584 2291 3584 
Q 2894 3584 3203 3211 
Q 3513 2838 3513 2113 
z
" transform="scale(0.015625)"/>
       <path id="DejaVuSans-63" d="M 3122 3366 
L 3122 2828 
Q 2878 2963 2633 3030 
Q 2388 3097 2138 3097 
Q 1578 3097 1268 2742 
Q 959 2388 959 1747 
Q 959 1106 1268 751 
Q 1578 397 2138 397 
Q 2388 397 2633 464 
Q 2878 531 3122 666 
L 3122 134 
Q 2881 22 2623 -34 
Q 2366 -91 2075 -91 
Q 1284 -91 818 406 
Q 353 903 353 1747 
Q 353 2603 823 3093 
Q 1294 3584 2113 3584 
Q 2378 3584 2631 3529 
Q 2884 3475 3122 3366 
z
" transform="scale(0.015625)"/>
       <path id="DejaVuSans-79" d="M 2059 -325 
Q 1816 -950 1584 -1140 
Q 1353 -1331 966 -1331 
L 506 -1331 
L 506 -850 
L 844 -850 
Q 1081 -850 1212 -737 
Q 1344 -625 1503 -206 
L 1606 56 
L 191 3500 
L 800 3500 
L 1894 763 
L 2988 3500 
L 3597 3500 
L 2059 -325 
z
" transform="scale(0.015625)"/>
       <path id="DejaVuSans-20" transform="scale(0.015625)"/>
       <path id="DejaVuSans-28" d="M 1984 4856 
Q 1566 4138 1362 3434 
Q 1159 2731 1159 2009 
Q 1159 1288 1364 580 
Q 1569 -128 1984 -844 
L 1484 -844 
Q 1016 -109 783 600 
Q 550 1309 550 2009 
Q 550 2706 781 3412 
Q 1013 4119 1484 4856 
L 1984 4856 
z
" transform="scale(0.015625)"/>
       <path id="DejaVuSans-48" d="M 628 4666 
L 1259 4666 
L 1259 2753 
L 3553 2753 
L 3553 4666 
L 4184 4666 
L 4184 0 
L 3553 0 
L 3553 2222 
L 1259 2222 
L 1259 0 
L 628 0 
L 628 4666 
z
" transform="scale(0.015625)"/>
       <path id="DejaVuSans-7a" d="M 353 3500 
L 3084 3500 
L 3084 2975 
L 922 459 
L 3084 459 
L 3084 0 
L 275 0 
L 275 525 
L 2438 3041 
L 353 3041 
L 353 3500 
z
" transform="scale(0.015625)"/>
       <path id="DejaVuSans-29" d="M 513 4856 
L 1013 4856 
Q 1481 4119 1714 3412 
Q 1947 2706 1947 2009 
Q 1947 1309 1714 600 
Q 1481 -109 1013 -844 
L 513 -844 
Q 928 -128 1133 580 
Q 1338 1288 1338 2009 
Q 1338 2731 1133 3434 
Q 928 4138 513 4856 
z
" transform="scale(0.015625)"/>
      </defs>
      <use xlink:href="#DejaVuSans-46"/>
      <use xlink:href="#DejaVuSans-72" x="50.269531"/>
      <use xlink:href="#DejaVuSans-65" x="89.132812"/>
      <use xlink:href="#DejaVuSans-71" x="150.65625"/>
      <use xlink:href="#DejaVuSans-75" x="214.132812"/>
      <use xlink:href="#DejaVuSans-65" x="277.511719"/>
      <use xlink:href="#DejaVuSans-6e" x="339.035156"/>
      <use xlink:href="#DejaVuSans-63" x="402.414062"/>
      <use xlink:href="#DejaVuSans-79" x="457.394531"/>
      <use xlink:href="#DejaVuSans-20" x="516.574219"/>
      <use xlink:href="#DejaVuSans-28" x="548.361328"/>
      <use xlink:href="#DejaVuSans-48" x="587.375"/>
      <use xlink:href="#DejaVuSans-7a" x="662.570312"/>
      <use xlink:href="#DejaVuSans-29" x="715.060547"/>
     </g>
    </g>
   </g>
   <g id="matplotlib.axis_2">
    <g id="ytick_1">
     <g id="line2d_51">
      <path d="M 61.295938 379.24 
L 1047.675937 379.24 
" clip-path="url(#pf32416f35f)" style="fill: none; stroke: #b0b0b0; stroke-width: 0.5; stroke-linecap: square"/>
     </g>
     <g id="line2d_52">
      <defs>
       <path id="m64feef3d57" d="M 0 0 
L -3.5 0 
" style="stroke: #000000; stroke-width: 0.8"/>
      </defs>
      <g>
       <use xlink:href="#m64feef3d57" x="61.295938" y="379.24" style="stroke: #000000; stroke-width: 0.8"/>
      </g>
     </g>
     <g id="text_9">
      <!-- −80 -->
      <g transform="translate(24.749375 384.558906) scale(0.14 -0.14)">
       <defs>
        <path id="DejaVuSans-2212" d="M 678 2272 
L 4684 2272 
L 4684 1741 
L 678 1741 
L 678 2272 
z
" transform="scale(0.015625)"/>
       </defs>
       <use xlink:href="#DejaVuSans-2212"/>
       <use xlink:href="#DejaVuSans-38" x="83.789062"/>
       <use xlink:href="#DejaVuSans-30" x="147.412109"/>
      </g>
     </g>
    </g>
    <g id="ytick_2">
     <g id="line2d_53">
      <path d="M 61.295938 335.470588 
L 1047.675937 335.470588 
" clip-path="url(#pf32416f35f)" style="fill: none; stroke: #b0b0b0; stroke-width: 0.5; stroke-linecap: square"/>
     </g>
     <g id="line2d_54">
      <g>
       <use xlink:href="#m64feef3d57" x="61.295938" y="335.470588" style="stroke: #000000; stroke-width: 0.8"/>
      </g>
     </g>
     <g id="text_10">
      <!-- −70 -->
      <g transform="translate(24.749375 340.789494) scale(0.14 -0.14)">
       <defs>
        <path id="DejaVuSans-37" d="M 525 4666 
L 3525 4666 
L 3525 4397 
L 1831 0 
L 1172 0 
L 2766 4134 
L 525 4134 
L 525 4666 
z
" transform="scale(0.015625)"/>
       </defs>
       <use xlink:href="#DejaVuSans-2212"/>
       <use xlink:href="#DejaVuSans-37" x="83.789062"/>
       <use xlink:href="#DejaVuSans-30" x="147.412109"/>
      </g>
     </g>
    </g>
    <g id="ytick_3">
     <g id="line2d_55">
      <path d="M 61.295938 291.701176 
L 1047.675937 291.701176 
" clip-path="url(#pf32416f35f)" style="fill: none; stroke: #b0b0b0; stroke-width: 0.5; stroke-linecap: square"/>
     </g>
     <g id="line2d_56">
      <g>
       <use xlink:href="#m64feef3d57" x="61.295938" y="291.701176" style="stroke: #000000; stroke-width: 0.8"/>
      </g>
     </g>
     <g id="text_11">
      <!-- −60 -->
      <g transform="translate(24.749375 297.020083) scale(0.14 -0.14)">
       <use xlink:href="#DejaVuSans-2212"/>
       <use xlink:href="#DejaVuSans-36" x="83.789062"/>
       <use xlink:href="#DejaVuSans-30" x="147.412109"/>
      </g>
     </g>
    </g>
    <g id="ytick_4">
     <g id="line2d_57">
      <path d="M 61.295938 247.931765 
L 1047.675937 247.931765 
" clip-path="url(#pf32416f35f)" style="fill: none; stroke: #b0b0b0; stroke-width: 0.5; stroke-linecap: square"/>
     </g>
     <g id="line2d_58">
      <g>
       <use xlink:href="#m64feef3d57" x="61.295938" y="247.931765" style="stroke: #000000; stroke-width: 0.8"/>
      </g>
     </g>
     <g id="text_12">
      <!-- −50 -->
      <g transform="translate(24.749375 253.250671) scale(0.14 -0.14)">
       <defs>
        <path id="DejaVuSans-35" d="M 691 4666 
L 3169 4666 
L 3169 4134 
L 1269 4134 
L 1269 2991 
Q 1406 3038 1543 3061 
Q 1681 3084 1819 3084 
Q 2600 3084 3056 2656 
Q 3513 2228 3513 1497 
Q 3513 744 3044 326 
Q 2575 -91 1722 -91 
Q 1428 -91 1123 -41 
Q 819 9 494 109 
L 494 744 
Q 775 591 1075 516 
Q 1375 441 1709 441 
Q 2250 441 2565 725 
Q 2881 1009 2881 1497 
Q 2881 1984 2565 2268 
Q 2250 2553 1709 2553 
Q 1456 2553 1204 2497 
Q 953 2441 691 2322 
L 691 4666 
z
" transform="scale(0.015625)"/>
       </defs>
       <use xlink:href="#DejaVuSans-2212"/>
       <use xlink:href="#DejaVuSans-35" x="83.789062"/>
       <use xlink:href="#DejaVuSans-30" x="147.412109"/>
      </g>
     </g>
    </g>
    <g id="ytick_5">
     <g id="line2d_59">
      <path d="M 61.295938 204.162353 
L 1047.675937 204.162353 
" clip-path="url(#pf32416f35f)" style="fill: none; stroke: #b0b0b0; stroke-width: 0.5; stroke-linecap: square"/>
     </g>
     <g id="line2d_60">
      <g>
       <use xlink:href="#m64feef3d57" x="61.295938" y="204.162353" style="stroke: #000000; stroke-width: 0.8"/>
      </g>
     </g>
     <g id="text_13">
      <!-- −40 -->
      <g transform="translate(24.749375 209.481259) scale(0.14 -0.14)">
       <use xlink:href="#DejaVuSans-2212"/>
       <use xlink:href="#DejaVuSans-34" x="83.789062"/>
       <use xlink:href="#DejaVuSans-30" x="147.412109"/>
      </g>
     </g>
    </g>
    <g id="ytick_6">
     <g id="line2d_61">
      <path d="M 61.295938 160.392941 
L 1047.675937 160.392941 
" clip-path="url(#pf32416f35f)" style="fill: none; stroke: #b0b0b0; stroke-width: 0.5; stroke-linecap: square"/>
     </g>
     <g id="line2d_62">
      <g>
       <use xlink:href="#m64feef3d57" x="61.295938" y="160.392941" style="stroke: #000000; stroke-width: 0.8"/>
      </g>
     </g>
     <g id="text_14">
      <!-- −30 -->
      <g transform="translate(24.749375 165.711847) scale(0.14 -0.14)">
       <defs>
        <path id="DejaVuSans-33" d="M 2597 2516 
Q 3050 2419 3304 2112 
Q 3559 1806 3559 1356 
Q 3559 666 3084 287 
Q 2609 -91 1734 -91 
Q 1441 -91 1130 -33 
Q 819 25 488 141 
L 488 750 
Q 750 597 1062 519 
Q 1375 441 1716 441 
Q 2309 441 2620 675 
Q 2931 909 2931 1356 
Q 2931 1769 2642 2001 
Q 2353 2234 1838 2234 
L 1294 2234 
L 1294 2753 
L 1863 2753 
Q 2328 2753 2575 2939 
Q 2822 3125 2822 3475 
Q 2822 3834 2567 4026 
Q 2313 4219 1838 4219 
Q 1578 4219 1281 4162 
Q 984 4106 628 3988 
L 628 4550 
Q 988 4650 1302 4700 
Q 1616 4750 1894 4750 
Q 2613 4750 3031 4423 
Q 3450 4097 3450 3541 
Q 3450 3153 3228 2886 
Q 3006 2619 2597 2516 
z
" transform="scale(0.015625)"/>
       </defs>
       <use xlink:href="#DejaVuSans-2212"/>
       <use xlink:href="#DejaVuSans-33" x="83.789062"/>
       <use xlink:href="#DejaVuSans-30" x="147.412109"/>
      </g>
     </g>
    </g>
    <g id="ytick_7">
     <g id="line2d_63">
      <path d="M 61.295938 116.623529 
L 1047.675937 116.623529 
" clip-path="url(#pf32416f35f)" style="fill: none; stroke: #b0b0b0; stroke-width: 0.5; stroke-linecap: square"/>
     </g>
     <g id="line2d_64">
      <g>
       <use xlink:href="#m64feef3d57" x="61.295938" y="116.623529" style="stroke: #000000; stroke-width: 0.8"/>
      </g>
     </g>
     <g id="text_15">
      <!-- −20 -->
      <g transform="translate(24.749375 121.942436) scale(0.14 -0.14)">
       <use xlink:href="#DejaVuSans-2212"/>
       <use xlink:href="#DejaVuSans-32" x="83.789062"/>
       <use xlink:href="#DejaVuSans-30" x="147.412109"/>
      </g>
     </g>
    </g>
    <g id="ytick_8">
     <g id="line2d_65">
      <path d="M 61.295938 72.854118 
L 1047.675937 72.854118 
" clip-path="url(#pf32416f35f)" style="fill: none; stroke: #b0b0b0; stroke-width: 0.5; stroke-linecap: square"/>
     </g>
     <g id="line2d_66">
      <g>
       <use xlink:href="#m64feef3d57" x="61.295938" y="72.854118" style="stroke: #000000; stroke-width: 0.8"/>
      </g>
     </g>
     <g id="text_16">
      <!-- −10 -->
      <g transform="translate(24.749375 78.173024) scale(0.14 -0.14)">
       <use xlink:href="#DejaVuSans-2212"/>
       <use xlink:href="#DejaVuSans-31" x="83.789062"/>
       <use xlink:href="#DejaVuSans-30" x="147.412109"/>
      </g>
     </g>
    </g>
    <g id="ytick_9">
     <g id="line2d_67">
      <path d="M 61.295938 29.084706 
L 1047.675937 29.084706 
" clip-path="url(#pf32416f35f)" style="fill: none; stroke: #b0b0b0; stroke-width: 0.5; stroke-linecap: square"/>
     </g>
     <g id="line2d_68">
      <g>
       <use xlink:href="#m64feef3d57" x="61.295938" y="29.084706" style="stroke: #000000; stroke-width: 0.8"/>
      </g>
     </g>
     <g id="text_17">
      <!-- 0 -->
      <g transform="translate(45.388438 34.403612) scale(0.14 -0.14)">
       <use xlink:href="#DejaVuSans-30"/>
      </g>
     </g>
    </g>
    <g id="ytick_10">
     <g id="line2d_69">
      <path d="M 61.295938 370.486118 
L 1047.675937 370.486118 
" clip-path="url(#pf32416f35f)" style="fill: none; stroke: #b0b0b0; stroke-width: 0.5; stroke-linecap: square"/>
     </g>
     <g id="line2d_70">
      <defs>
       <path id="mb9783d57a8" d="M 0 0 
L -2 0 
" style="stroke: #000000; stroke-width: 0.6"/>
      </defs>
      <g>
       <use xlink:href="#mb9783d57a8" x="61.295938" y="370.486118" style="stroke: #000000; stroke-width: 0.6"/>
      </g>
     </g>
    </g>
    <g id="ytick_11">
     <g id="line2d_71">
      <path d="M 61.295938 361.732235 
L 1047.675937 361.732235 
" clip-path="url(#pf32416f35f)" style="fill: none; stroke: #b0b0b0; stroke-width: 0.5; stroke-linecap: square"/>
     </g>
     <g id="line2d_72">
      <g>
       <use xlink:href="#mb9783d57a8" x="61.295938" y="361.732235" style="stroke: #000000; stroke-width: 0.6"/>
      </g>
     </g>
    </g>
    <g id="ytick_12">
     <g id="line2d_73">
      <path d="M 61.295938 352.978353 
L 1047.675937 352.978353 
" clip-path="url(#pf32416f35f)" style="fill: none; stroke: #b0b0b0; stroke-width: 0.5; stroke-linecap: square"/>
     </g>
     <g id="line2d_74">
      <g>
       <use xlink:href="#mb9783d57a8" x="61.295938" y="352.978353" style="stroke: #000000; stroke-width: 0.6"/>
      </g>
     </g>
    </g>
    <g id="ytick_13">
     <g id="line2d_75">
      <path d="M 61.295938 344.224471 
L 1047.675937 344.224471 
" clip-path="url(#pf32416f35f)" style="fill: none; stroke: #b0b0b0; stroke-width: 0.5; stroke-linecap: square"/>
     </g>
     <g id="line2d_76">
      <g>
       <use xlink:href="#mb9783d57a8" x="61.295938" y="344.224471" style="stroke: #000000; stroke-width: 0.6"/>
      </g>
     </g>
    </g>
    <g id="ytick_14">
     <g id="line2d_77">
      <path d="M 61.295938 326.716706 
L 1047.675937 326.716706 
" clip-path="url(#pf32416f35f)" style="fill: none; stroke: #b0b0b0; stroke-width: 0.5; stroke-linecap: square"/>
     </g>
     <g id="line2d_78">
      <g>
       <use xlink:href="#mb9783d57a8" x="61.295938" y="326.716706" style="stroke: #000000; stroke-width: 0.6"/>
      </g>
     </g>
    </g>
    <g id="ytick_15">
     <g id="line2d_79">
      <path d="M 61.295938 317.962824 
L 1047.675937 317.962824 
" clip-path="url(#pf32416f35f)" style="fill: none; stroke: #b0b0b0; stroke-width: 0.5; stroke-linecap: square"/>
     </g>
     <g id="line2d_80">
      <g>
       <use xlink:href="#mb9783d57a8" x="61.295938" y="317.962824" style="stroke: #000000; stroke-width: 0.6"/>
      </g>
     </g>
    </g>
    <g id="ytick_16">
     <g id="line2d_81">
      <path d="M 61.295938 309.208941 
L 1047.675937 309.208941 
" clip-path="url(#pf32416f35f)" style="fill: none; stroke: #b0b0b0; stroke-width: 0.5; stroke-linecap: square"/>
     </g>
     <g id="line2d_82">
      <g>
       <use xlink:href="#mb9783d57a8" x="61.295938" y="309.208941" style="stroke: #000000; stroke-width: 0.6"/>
      </g>
     </g>
    </g>
    <g id="ytick_17">
     <g id="line2d_83">
      <path d="M 61.295938 300.455059 
L 1047.675937 300.455059 
" clip-path="url(#pf32416f35f)" style="fill: none; stroke: #b0b0b0; stroke-width: 0.5; stroke-linecap: square"/>
     </g>
     <g id="line2d_84">
      <g>
       <use xlink:href="#mb9783d57a8" x="61.295938" y="300.455059" style="stroke: #000000; stroke-width: 0.6"/>
      </g>
     </g>
    </g>
    <g id="ytick_18">
     <g id="line2d_85">
      <path d="M 61.295938 282.947294 
L 1047.675937 282.947294 
" clip-path="url(#pf32416f35f)" style="fill: none; stroke: #b0b0b0; stroke-width: 0.5; stroke-linecap: square"/>
     </g>
     <g id="line2d_86">
      <g>
       <use xlink:href="#mb9783d57a8" x="61.295938" y="282.947294" style="stroke: #000000; stroke-width: 0.6"/>
      </g>
     </g>
    </g>
    <g id="ytick_19">
     <g id="line2d_87">
      <path d="M 61.295938 274.193412 
L 1047.675937 274.193412 
" clip-path="url(#pf32416f35f)" style="fill: none; stroke: #b0b0b0; stroke-width: 0.5; stroke-linecap: square"/>
     </g>
     <g id="line2d_88">
      <g>
       <use xlink:href="#mb9783d57a8" x="61.295938" y="274.193412" style="stroke: #000000; stroke-width: 0.6"/>
      </g>
     </g>
    </g>
    <g id="ytick_20">
     <g id="line2d_89">
      <path d="M 61.295938 265.439529 
L 1047.675937 265.439529 
" clip-path="url(#pf32416f35f)" style="fill: none; stroke: #b0b0b0; stroke-width: 0.5; stroke-linecap: square"/>
     </g>
     <g id="line2d_90">
      <g>
       <use xlink:href="#mb9783d57a8" x="61.295938" y="265.439529" style="stroke: #000000; stroke-width: 0.6"/>
      </g>
     </g>
    </g>
    <g id="ytick_21">
     <g id="line2d_91">
      <path d="M 61.295938 256.685647 
L 1047.675937 256.685647 
" clip-path="url(#pf32416f35f)" style="fill: none; stroke: #b0b0b0; stroke-width: 0.5; stroke-linecap: square"/>
     </g>
     <g id="line2d_92">
      <g>
       <use xlink:href="#mb9783d57a8" x="61.295938" y="256.685647" style="stroke: #000000; stroke-width: 0.6"/>
      </g>
     </g>
    </g>
    <g id="ytick_22">
     <g id="line2d_93">
      <path d="M 61.295938 239.177882 
L 1047.675937 239.177882 
" clip-path="url(#pf32416f35f)" style="fill: none; stroke: #b0b0b0; stroke-width: 0.5; stroke-linecap: square"/>
     </g>
     <g id="line2d_94">
      <g>
       <use xlink:href="#mb9783d57a8" x="61.295938" y="239.177882" style="stroke: #000000; stroke-width: 0.6"/>
      </g>
     </g>
    </g>
    <g id="ytick_23">
     <g id="line2d_95">
      <path d="M 61.295938 230.424 
L 1047.675937 230.424 
" clip-path="url(#pf32416f35f)" style="fill: none; stroke: #b0b0b0; stroke-width: 0.5; stroke-linecap: square"/>
     </g>
     <g id="line2d_96">
      <g>
       <use xlink:href="#mb9783d57a8" x="61.295938" y="230.424" style="stroke: #000000; stroke-width: 0.6"/>
      </g>
     </g>
    </g>
    <g id="ytick_24">
     <g id="line2d_97">
      <path d="M 61.295938 221.670118 
L 1047.675937 221.670118 
" clip-path="url(#pf32416f35f)" style="fill: none; stroke: #b0b0b0; stroke-width: 0.5; stroke-linecap: square"/>
     </g>
     <g id="line2d_98">
      <g>
       <use xlink:href="#mb9783d57a8" x="61.295938" y="221.670118" style="stroke: #000000; stroke-width: 0.6"/>
      </g>
     </g>
    </g>
    <g id="ytick_25">
     <g id="line2d_99">
      <path d="M 61.295938 212.916235 
L 1047.675937 212.916235 
" clip-path="url(#pf32416f35f)" style="fill: none; stroke: #b0b0b0; stroke-width: 0.5; stroke-linecap: square"/>
     </g>
     <g id="line2d_100">
      <g>
       <use xlink:href="#mb9783d57a8" x="61.295938" y="212.916235" style="stroke: #000000; stroke-width: 0.6"/>
      </g>
     </g>
    </g>
    <g id="ytick_26">
     <g id="line2d_101">
      <path d="M 61.295938 195.408471 
L 1047.675937 195.408471 
" clip-path="url(#pf32416f35f)" style="fill: none; stroke: #b0b0b0; stroke-width: 0.5; stroke-linecap: square"/>
     </g>
     <g id="line2d_102">
      <g>
       <use xlink:href="#mb9783d57a8" x="61.295938" y="195.408471" style="stroke: #000000; stroke-width: 0.6"/>
      </g>
     </g>
    </g>
    <g id="ytick_27">
     <g id="line2d_103">
      <path d="M 61.295938 186.654588 
L 1047.675937 186.654588 
" clip-path="url(#pf32416f35f)" style="fill: none; stroke: #b0b0b0; stroke-width: 0.5; stroke-linecap: square"/>
     </g>
     <g id="line2d_104">
      <g>
       <use xlink:href="#mb9783d57a8" x="61.295938" y="186.654588" style="stroke: #000000; stroke-width: 0.6"/>
      </g>
     </g>
    </g>
    <g id="ytick_28">
     <g id="line2d_105">
      <path d="M 61.295938 177.900706 
L 1047.675937 177.900706 
" clip-path="url(#pf32416f35f)" style="fill: none; stroke: #b0b0b0; stroke-width: 0.5; stroke-linecap: square"/>
     </g>
     <g id="line2d_106">
      <g>
       <use xlink:href="#mb9783d57a8" x="61.295938" y="177.900706" style="stroke: #000000; stroke-width: 0.6"/>
      </g>
     </g>
    </g>
    <g id="ytick_29">
     <g id="line2d_107">
      <path d="M 61.295938 169.146824 
L 1047.675937 169.146824 
" clip-path="url(#pf32416f35f)" style="fill: none; stroke: #b0b0b0; stroke-width: 0.5; stroke-linecap: square"/>
     </g>
     <g id="line2d_108">
      <g>
       <use xlink:href="#mb9783d57a8" x="61.295938" y="169.146824" style="stroke: #000000; stroke-width: 0.6"/>
      </g>
     </g>
    </g>
    <g id="ytick_30">
     <g id="line2d_109">
      <path d="M 61.295938 151.639059 
L 1047.675937 151.639059 
" clip-path="url(#pf32416f35f)" style="fill: none; stroke: #b0b0b0; stroke-width: 0.5; stroke-linecap: square"/>
     </g>
     <g id="line2d_110">
      <g>
       <use xlink:href="#mb9783d57a8" x="61.295938" y="151.639059" style="stroke: #000000; stroke-width: 0.6"/>
      </g>
     </g>
    </g>
    <g id="ytick_31">
     <g id="line2d_111">
      <path d="M 61.295938 142.885176 
L 1047.675937 142.885176 
" clip-path="url(#pf32416f35f)" style="fill: none; stroke: #b0b0b0; stroke-width: 0.5; stroke-linecap: square"/>
     </g>
     <g id="line2d_112">
      <g>
       <use xlink:href="#mb9783d57a8" x="61.295938" y="142.885176" style="stroke: #000000; stroke-width: 0.6"/>
      </g>
     </g>
    </g>
    <g id="ytick_32">
     <g id="line2d_113">
      <path d="M 61.295938 134.131294 
L 1047.675937 134.131294 
" clip-path="url(#pf32416f35f)" style="fill: none; stroke: #b0b0b0; stroke-width: 0.5; stroke-linecap: square"/>
     </g>
     <g id="line2d_114">
      <g>
       <use xlink:href="#mb9783d57a8" x="61.295938" y="134.131294" style="stroke: #000000; stroke-width: 0.6"/>
      </g>
     </g>
    </g>
    <g id="ytick_33">
     <g id="line2d_115">
      <path d="M 61.295938 125.377412 
L 1047.675937 125.377412 
" clip-path="url(#pf32416f35f)" style="fill: none; stroke: #b0b0b0; stroke-width: 0.5; stroke-linecap: square"/>
     </g>
     <g id="line2d_116">
      <g>
       <use xlink:href="#mb9783d57a8" x="61.295938" y="125.377412" style="stroke: #000000; stroke-width: 0.6"/>
      </g>
     </g>
    </g>
    <g id="ytick_34">
     <g id="line2d_117">
      <path d="M 61.295938 107.869647 
L 1047.675937 107.869647 
" clip-path="url(#pf32416f35f)" style="fill: none; stroke: #b0b0b0; stroke-width: 0.5; stroke-linecap: square"/>
     </g>
     <g id="line2d_118">
      <g>
       <use xlink:href="#mb9783d57a8" x="61.295938" y="107.869647" style="stroke: #000000; stroke-width: 0.6"/>
      </g>
     </g>
    </g>
    <g id="ytick_35">
     <g id="line2d_119">
      <path d="M 61.295938 99.115765 
L 1047.675937 99.115765 
" clip-path="url(#pf32416f35f)" style="fill: none; stroke: #b0b0b0; stroke-width: 0.5; stroke-linecap: square"/>
     </g>
     <g id="line2d_120">
      <g>
       <use xlink:href="#mb9783d57a8" x="61.295938" y="99.115765" style="stroke: #000000; stroke-width: 0.6"/>
      </g>
     </g>
    </g>
    <g id="ytick_36">
     <g id="line2d_121">
      <path d="M 61.295938 90.361882 
L 1047.675937 90.361882 
" clip-path="url(#pf32416f35f)" style="fill: none; stroke: #b0b0b0; stroke-width: 0.5; stroke-linecap: square"/>
     </g>
     <g id="line2d_122">
      <g>
       <use xlink:href="#mb9783d57a8" x="61.295938" y="90.361882" style="stroke: #000000; stroke-width: 0.6"/>
      </g>
     </g>
    </g>
    <g id="ytick_37">
     <g id="line2d_123">
      <path d="M 61.295938 81.608 
L 1047.675937 81.608 
" clip-path="url(#pf32416f35f)" style="fill: none; stroke: #b0b0b0; stroke-width: 0.5; stroke-linecap: square"/>
     </g>
     <g id="line2d_124">
      <g>
       <use xlink:href="#mb9783d57a8" x="61.295938" y="81.608" style="stroke: #000000; stroke-width: 0.6"/>
      </g>
     </g>
    </g>
    <g id="ytick_38">
     <g id="line2d_125">
      <path d="M 61.295938 64.100235 
L 1047.675937 64.100235 
" clip-path="url(#pf32416f35f)" style="fill: none; stroke: #b0b0b0; stroke-width: 0.5; stroke-linecap: square"/>
     </g>
     <g id="line2d_126">
      <g>
       <use xlink:href="#mb9783d57a8" x="61.295938" y="64.100235" style="stroke: #000000; stroke-width: 0.6"/>
      </g>
     </g>
    </g>
    <g id="ytick_39">
     <g id="line2d_127">
      <path d="M 61.295938 55.346353 
L 1047.675937 55.346353 
" clip-path="url(#pf32416f35f)" style="fill: none; stroke: #b0b0b0; stroke-width: 0.5; stroke-linecap: square"/>
     </g>
     <g id="line2d_128">
      <g>
       <use xlink:href="#mb9783d57a8" x="61.295938" y="55.346353" style="stroke: #000000; stroke-width: 0.6"/>
      </g>
     </g>
    </g>
    <g id="ytick_40">
     <g id="line2d_129">
      <path d="M 61.295938 46.592471 
L 1047.675937 46.592471 
" clip-path="url(#pf32416f35f)" style="fill: none; stroke: #b0b0b0; stroke-width: 0.5; stroke-linecap: square"/>
     </g>
     <g id="line2d_130">
      <g>
       <use xlink:href="#mb9783d57a8" x="61.295938" y="46.592471" style="stroke: #000000; stroke-width: 0.6"/>
      </g>
     </g>
    </g>
    <g id="ytick_41">
     <g id="line2d_131">
      <path d="M 61.295938 37.838588 
L 1047.675937 37.838588 
" clip-path="url(#pf32416f35f)" style="fill: none; stroke: #b0b0b0; stroke-width: 0.5; stroke-linecap: square"/>
     </g>
     <g id="line2d_132">
      <g>
       <use xlink:href="#mb9783d57a8" x="61.295938" y="37.838588" style="stroke: #000000; stroke-width: 0.6"/>
      </g>
     </g>
    </g>
    <g id="ytick_42">
     <g id="line2d_133">
      <path d="M 61.295938 20.330824 
L 1047.675937 20.330824 
" clip-path="url(#pf32416f35f)" style="fill: none; stroke: #b0b0b0; stroke-width: 0.5; stroke-linecap: square"/>
     </g>
     <g id="line2d_134">
      <g>
       <use xlink:href="#mb9783d57a8" x="61.295938" y="20.330824" style="stroke: #000000; stroke-width: 0.6"/>
      </g>
     </g>
    </g>
    <g id="ytick_43">
     <g id="line2d_135">
      <path d="M 61.295938 11.576941 
L 1047.675937 11.576941 
" clip-path="url(#pf32416f35f)" style="fill: none; stroke: #b0b0b0; stroke-width: 0.5; stroke-linecap: square"/>
     </g>
     <g id="line2d_136">
      <g>
       <use xlink:href="#mb9783d57a8" x="61.295938" y="11.576941" style="stroke: #000000; stroke-width: 0.6"/>
      </g>
     </g>
    </g>
    <g id="text_18">
     <!-- Magnitude (dB) -->
     <g transform="translate(17.837812 247.239219) rotate(-90) scale(0.14 -0.14)">
      <defs>
       <path id="DejaVuSans-4d" d="M 628 4666 
L 1569 4666 
L 2759 1491 
L 3956 4666 
L 4897 4666 
L 4897 0 
L 4281 0 
L 4281 4097 
L 3078 897 
L 2444 897 
L 1241 4097 
L 1241 0 
L 628 0 
L 628 4666 
z
" transform="scale(0.015625)"/>
       <path id="DejaVuSans-61" d="M 2194 1759 
Q 1497 1759 1228 1600 
Q 959 1441 959 1056 
Q 959 750 1161 570 
Q 1363 391 1709 391 
Q 2188 391 2477 730 
Q 2766 1069 2766 1631 
L 2766 1759 
L 2194 1759 
z
M 3341 1997 
L 3341 0 
L 2766 0 
L 2766 531 
Q 2569 213 2275 61 
Q 1981 -91 1556 -91 
Q 1019 -91 701 211 
Q 384 513 384 1019 
Q 384 1609 779 1909 
Q 1175 2209 1959 2209 
L 2766 2209 
L 2766 2266 
Q 2766 2663 2505 2880 
Q 2244 3097 1772 3097 
Q 1472 3097 1187 3025 
Q 903 2953 641 2809 
L 641 3341 
Q 956 3463 1253 3523 
Q 1550 3584 1831 3584 
Q 2591 3584 2966 3190 
Q 3341 2797 3341 1997 
z
" transform="scale(0.015625)"/>
       <path id="DejaVuSans-67" d="M 2906 1791 
Q 2906 2416 2648 2759 
Q 2391 3103 1925 3103 
Q 1463 3103 1205 2759 
Q 947 2416 947 1791 
Q 947 1169 1205 825 
Q 1463 481 1925 481 
Q 2391 481 2648 825 
Q 2906 1169 2906 1791 
z
M 3481 434 
Q 3481 -459 3084 -895 
Q 2688 -1331 1869 -1331 
Q 1566 -1331 1297 -1286 
Q 1028 -1241 775 -1147 
L 775 -588 
Q 1028 -725 1275 -790 
Q 1522 -856 1778 -856 
Q 2344 -856 2625 -561 
Q 2906 -266 2906 331 
L 2906 616 
Q 2728 306 2450 153 
Q 2172 0 1784 0 
Q 1141 0 747 490 
Q 353 981 353 1791 
Q 353 2603 747 3093 
Q 1141 3584 1784 3584 
Q 2172 3584 2450 3431 
Q 2728 3278 2906 2969 
L 2906 3500 
L 3481 3500 
L 3481 434 
z
" transform="scale(0.015625)"/>
       <path id="DejaVuSans-69" d="M 603 3500 
L 1178 3500 
L 1178 0 
L 603 0 
L 603 3500 
z
M 603 4863 
L 1178 4863 
L 1178 4134 
L 603 4134 
L 603 4863 
z
" transform="scale(0.015625)"/>
       <path id="DejaVuSans-74" d="M 1172 4494 
L 1172 3500 
L 2356 3500 
L 2356 3053 
L 1172 3053 
L 1172 1153 
Q 1172 725 1289 603 
Q 1406 481 1766 481 
L 2356 481 
L 2356 0 
L 1766 0 
Q 1100 0 847 248 
Q 594 497 594 1153 
L 594 3053 
L 172 3053 
L 172 3500 
L 594 3500 
L 594 4494 
L 1172 4494 
z
" transform="scale(0.015625)"/>
       <path id="DejaVuSans-64" d="M 2906 2969 
L 2906 4863 
L 3481 4863 
L 3481 0 
L 2906 0 
L 2906 525 
Q 2725 213 2448 61 
Q 2172 -91 1784 -91 
Q 1150 -91 751 415 
Q 353 922 353 1747 
Q 353 2572 751 3078 
Q 1150 3584 1784 3584 
Q 2172 3584 2448 3432 
Q 2725 3281 2906 2969 
z
M 947 1747 
Q 947 1113 1208 752 
Q 1469 391 1925 391 
Q 2381 391 2643 752 
Q 2906 1113 2906 1747 
Q 2906 2381 2643 2742 
Q 2381 3103 1925 3103 
Q 1469 3103 1208 2742 
Q 947 2381 947 1747 
z
" transform="scale(0.015625)"/>
       <path id="DejaVuSans-42" d="M 1259 2228 
L 1259 519 
L 2272 519 
Q 2781 519 3026 730 
Q 3272 941 3272 1375 
Q 3272 1813 3026 2020 
Q 2781 2228 2272 2228 
L 1259 2228 
z
M 1259 4147 
L 1259 2741 
L 2194 2741 
Q 2656 2741 2882 2914 
Q 3109 3088 3109 3444 
Q 3109 3797 2882 3972 
Q 2656 4147 2194 4147 
L 1259 4147 
z
M 628 4666 
L 2241 4666 
Q 2963 4666 3353 4366 
Q 3744 4066 3744 3513 
Q 3744 3084 3544 2831 
Q 3344 2578 2956 2516 
Q 3422 2416 3680 2098 
Q 3938 1781 3938 1306 
Q 3938 681 3513 340 
Q 3088 0 2303 0 
L 628 0 
L 628 4666 
z
" transform="scale(0.015625)"/>
      </defs>
      <use xlink:href="#DejaVuSans-4d"/>
      <use xlink:href="#DejaVuSans-61" x="86.279297"/>
      <use xlink:href="#DejaVuSans-67" x="147.558594"/>
      <use xlink:href="#DejaVuSans-6e" x="211.035156"/>
      <use xlink:href="#DejaVuSans-69" x="274.414062"/>
      <use xlink:href="#DejaVuSans-74" x="302.197266"/>
      <use xlink:href="#DejaVuSans-75" x="341.40625"/>
      <use xlink:href="#DejaVuSans-64" x="404.785156"/>
      <use xlink:href="#DejaVuSans-65" x="468.261719"/>
      <use xlink:href="#DejaVuSans-20" x="529.785156"/>
      <use xlink:href="#DejaVuSans-28" x="561.572266"/>
      <use xlink:href="#DejaVuSans-64" x="600.585938"/>
      <use xlink:href="#DejaVuSans-42" x="664.0625"/>
      <use xlink:href="#DejaVuSans-29" x="732.666016"/>
     </g>
    </g>
   </g>
   <g id="line2d_137">
    <path d="M 74.036679 379.24 
L 74.036679 7.2 
" clip-path="url(#pf32416f35f)" style="fill: none; stroke-dasharray: 4.44,1.92; stroke-dashoffset: 0; stroke: #ff0000; stroke-width: 1.2"/>
   </g>
   <g id="line2d_138">
    <path d="M 377.348529 379.24 
L 377.348529 7.2 
" clip-path="url(#pf32416f35f)" style="fill: none; stroke-dasharray: 4.44,1.92; stroke-dashoffset: 0; stroke: #ff0000; stroke-width: 1.2"/>
   </g>
   <g id="line2d_139">
    <path d="M 529.004454 379.24 
L 529.004454 7.2 
" clip-path="url(#pf32416f35f)" style="fill: none; stroke-dasharray: 4.44,1.92; stroke-dashoffset: 0; stroke: #ff0000; stroke-width: 1.2"/>
   </g>
   <g id="line2d_140">
    <path d="M 680.660379 379.24 
L 680.660379 7.2 
" clip-path="url(#pf32416f35f)" style="fill: none; stroke-dasharray: 4.44,1.92; stroke-dashoffset: 0; stroke: #ff0000; stroke-width: 1.2"/>
   </g>
   <g id="line2d_141">
    <path d="M 832.316304 379.24 
L 832.316304 7.2 
" clip-path="url(#pf32416f35f)" style="fill: none; stroke-dasharray: 4.44,1.92; stroke-dashoffset: 0; stroke: #ff0000; stroke-width: 1.2"/>
   </g>
   <g id="line2d_142">
    <path d="M 983.972229 379.24 
L 983.972229 7.2 
" clip-path="url(#pf32416f35f)" style="fill: none; stroke-dasharray: 4.44,1.92; stroke-dashoffset: 0; stroke: #ff0000; stroke-width: 1.2"/>
   </g>
   <g id="line2d_143">
    <path d="M 61.295938 305.755328 
L 65.309528 274.223591 
L 69.323118 288.954157 
L 73.336709 282.030379 
L 77.350299 319.452747 
L 81.36389 301.942629 
L 85.37748 296.411459 
L 89.391071 285.409935 
L 93.404661 295.016416 
L 97.418252 280.497528 
L 101.431842 292.248756 
L 105.445433 272.25726 
L 109.459023 288.467766 
L 113.472614 295.107172 
L 117.486204 300.962825 
L 121.499795 283.273652 
L 125.513385 267.256464 
L 129.526976 242.979101 
L 133.540566 280.116151 
L 137.554157 249.020795 
L 141.567747 257.19526 
L 145.581338 254.913619 
L 149.594928 258.204925 
L 153.608519 239.918979 
L 157.622109 264.776972 
L 161.6357 247.958272 
L 165.64929 257.901625 
L 169.662881 228.032053 
L 173.676471 256.594183 
L 177.690062 236.204675 
L 181.703652 211.410059 
L 185.717243 172.510746 
L 189.730833 246.879667 
L 193.744424 216.441798 
L 197.758014 212.198876 
L 201.771605 208.711895 
L 205.785195 199.759462 
L 209.798786 196.390336 
L 217.825967 161.848466 
L 221.839557 137.877648 
L 225.853148 16.161952 
L 229.866738 139.104222 
L 233.880329 164.96097 
L 237.893919 179.792984 
L 241.90751 188.576345 
L 245.9211 208.107627 
L 249.934691 203.25872 
L 253.948281 210.83468 
L 257.961872 259.461927 
L 261.975462 189.464499 
L 265.989053 157.862824 
L 270.002643 193.80797 
L 274.016234 278.753394 
L 278.029824 217.134983 
L 282.043415 257.761601 
L 286.057005 229.783844 
L 290.070596 236.43982 
L 294.084186 272.179182 
L 298.097777 238.613139 
L 302.111367 242.231159 
L 306.124958 247.924637 
L 310.138548 249.874571 
L 314.152139 254.117522 
L 318.165729 241.747384 
L 322.17932 245.145305 
L 326.19291 267.601662 
L 330.206501 260.291582 
L 334.220091 257.298948 
L 338.233682 257.500132 
L 342.247272 252.759192 
L 346.260863 254.900273 
L 350.274453 259.473597 
L 354.288044 258.434273 
L 358.301634 289.057113 
L 362.315225 249.685826 
L 366.328815 255.478047 
L 370.342406 274.302254 
L 374.355996 289.388311 
L 378.369587 274.353741 
L 382.383177 249.503983 
L 386.396768 246.953773 
L 390.410358 183.618368 
L 394.423949 304.029593 
L 398.437539 298.877066 
L 402.45113 276.030221 
L 406.46472 313.966505 
L 410.478311 283.181404 
L 414.491901 290.608997 
L 418.505492 291.001174 
L 422.519082 324.652204 
L 426.532673 264.363449 
L 430.546263 269.947973 
L 434.559854 269.280835 
L 438.573444 297.970519 
L 442.587035 272.242948 
L 446.600625 285.51688 
L 450.614215 259.810266 
L 454.627806 268.493313 
L 458.641396 281.020154 
L 462.654987 277.248647 
L 466.668577 285.840603 
L 470.682168 276.173516 
L 474.695758 292.038213 
L 478.709349 265.217517 
L 482.722939 276.5026 
L 486.73653 285.620686 
L 490.75012 286.628429 
L 494.763711 279.316115 
L 498.777301 272.986985 
L 502.790892 284.933222 
L 506.804482 293.483547 
L 510.818073 260.340455 
L 514.831663 228.933195 
L 518.845254 283.775398 
L 522.858844 292.753439 
L 526.872435 264.976937 
L 530.886025 283.335672 
L 534.899616 286.617156 
L 538.913206 359.866506 
L 542.926797 279.13236 
L 546.940387 268.195082 
L 550.953978 247.211305 
L 554.967568 188.383521 
L 558.981159 278.823951 
L 562.994749 293.488932 
L 567.00834 328.072767 
L 571.02193 279.15453 
L 575.035521 310.589374 
L 579.049111 286.2524 
L 583.062702 282.802613 
L 587.076292 298.952608 
L 591.089883 282.302769 
L 595.103473 235.842712 
L 599.117064 253.56798 
L 603.130654 312.065332 
L 607.144245 306.246952 
L 611.157835 297.804362 
L 615.171426 308.99687 
L 619.185016 301.221101 
L 623.198607 321.242618 
L 627.212197 305.194951 
L 631.225788 312.147073 
L 635.239378 296.77316 
L 639.252969 270.924461 
L 643.266559 308.110454 
L 647.28015 298.92989 
L 651.29374 297.012836 
L 655.307331 310.40215 
L 659.320921 309.003008 
L 663.334512 332.553022 
L 667.348102 281.789887 
L 671.361693 305.019044 
L 675.375283 313.66516 
L 679.388874 279.525037 
L 683.402464 287.852614 
L 687.416055 279.776978 
L 691.429645 288.433669 
L 695.443236 280.911078 
L 699.456826 319.018225 
L 703.470417 296.117903 
L 707.484007 274.301837 
L 711.497598 261.642457 
L 715.511188 248.282609 
L 719.524779 200.330506 
L 723.538369 275.440988 
L 727.55196 306.947719 
L 731.56555 278.575841 
L 735.579141 307.75027 
L 739.592731 299.073448 
L 743.606322 336.203916 
L 747.619912 285.957949 
L 751.633503 306.84304 
L 755.647093 264.525891 
L 759.660684 304.601817 
L 763.674274 314.039551 
L 767.687865 284.236115 
L 771.701455 277.810339 
L 775.715046 337.826882 
L 779.728636 272.750039 
L 783.742227 267.992569 
L 787.755817 279.00723 
L 791.769408 303.295759 
L 795.782998 290.185192 
L 799.796589 263.701185 
L 803.810179 298.220014 
L 807.82377 287.495304 
L 811.83736 281.865191 
L 815.850951 277.311772 
L 819.864541 296.974523 
L 823.878132 274.819062 
L 827.891722 283.300721 
L 831.905313 265.552422 
L 835.918903 384.798918 
L 839.932493 279.22988 
L 843.946084 250.643352 
L 847.959674 262.161742 
L 851.973265 306.155886 
L 855.986855 281.956759 
L 860.000446 273.035918 
L 864.014036 250.537215 
L 868.027627 263.941135 
L 872.041217 237.63988 
L 876.054808 218.177072 
L 880.068398 187.87446 
L 884.081989 135.317164 
L 888.095579 202.065034 
L 892.10917 219.906047 
L 896.12276 243.129315 
L 900.136351 238.278542 
L 904.149941 269.472027 
L 908.163532 272.403166 
L 912.177122 270.439144 
L 916.190713 270.64828 
L 920.204303 287.229694 
L 924.217894 267.860857 
L 928.231484 283.173372 
L 932.245075 271.213265 
L 936.258665 295.052704 
L 940.272256 339.858851 
L 944.285846 296.921442 
L 948.299437 298.529731 
L 952.313027 333.630959 
L 956.326618 301.326626 
L 960.340208 328.1895 
L 964.353799 267.804032 
L 968.367389 278.784633 
L 972.38098 292.167354 
L 976.39457 315.386899 
L 980.408161 272.53193 
L 984.421751 349.729064 
L 988.435342 338.504873 
L 992.448932 338.235426 
L 996.462523 290.276057 
L 1000.476113 316.148043 
L 1004.489704 309.420351 
L 1008.503294 394.667687 
L 1012.516885 306.421934 
L 1016.530475 288.871451 
L 1020.544066 300.23753 
L 1024.557656 300.702863 
L 1028.571247 304.733212 
L 1032.584837 293.385854 
L 1036.598428 318.529444 
L 1040.612018 257.551642 
L 1044.625609 237.725748 
L 1048.639199 189.225058 
L 1048.639199 189.225058 
" clip-path="url(#pf32416f35f)" style="fill: none; stroke: #1f77b4; stroke-width: 1.2; stroke-linecap: square"/>
   </g>
   <g id="line2d_144">
    <path d="M 61.295938 221.09916 
L 65.309528 342.239017 
L 69.323118 273.633599 
L 73.336709 294.312099 
L 77.350299 280.720314 
L 81.36389 259.397087 
L 85.37748 290.777068 
L 93.404661 273.936211 
L 97.418252 280.831907 
L 101.431842 269.811249 
L 105.445433 284.879741 
L 109.459023 248.37931 
L 113.472614 259.186803 
L 117.486204 253.130074 
L 121.499795 247.904298 
L 125.513385 229.914409 
L 129.526976 272.144088 
L 133.540566 263.739997 
L 137.554157 262.354471 
L 141.567747 230.197727 
L 145.581338 238.020776 
L 149.594928 254.816057 
L 153.608519 238.926412 
L 157.622109 251.695239 
L 161.6357 233.601943 
L 165.64929 244.725144 
L 169.662881 238.243611 
L 173.676471 231.490506 
L 177.690062 246.106837 
L 181.703652 214.259448 
L 185.717243 184.991347 
L 189.730833 231.582651 
L 193.744424 203.37092 
L 197.758014 215.652131 
L 201.771605 207.942983 
L 205.785195 185.78669 
L 209.798786 194.979742 
L 213.812376 180.786356 
L 217.825967 165.887503 
L 221.839557 137.965935 
L 225.853148 16.19598 
L 229.866738 139.173025 
L 233.880329 166.970878 
L 237.893919 176.964752 
L 241.90751 190.910364 
L 245.9211 196.888804 
L 249.934691 195.657425 
L 253.948281 214.613244 
L 257.961872 239.343784 
L 261.975462 191.065772 
L 265.989053 164.111213 
L 270.002643 195.568651 
L 274.016234 214.002316 
L 278.029824 216.684594 
L 282.043415 305.994203 
L 286.057005 213.463488 
L 290.070596 215.96644 
L 294.084186 255.557266 
L 298.097777 215.60683 
L 302.111367 257.285732 
L 306.124958 229.090713 
L 310.138548 259.734349 
L 314.152139 234.589961 
L 318.165729 250.108437 
L 322.17932 243.473705 
L 326.19291 320.240402 
L 330.206501 250.189961 
L 334.220091 300.988528 
L 338.233682 261.89025 
L 342.247272 309.490412 
L 346.260863 250.615967 
L 350.274453 251.014597 
L 354.288044 274.592443 
L 358.301634 266.59177 
L 362.315225 283.149333 
L 366.328815 273.632382 
L 370.342406 249.275479 
L 374.355996 280.934346 
L 378.369587 270.545771 
L 382.383177 266.641125 
L 386.396768 262.357814 
L 390.410358 181.840545 
L 394.423949 304.539159 
L 398.437539 273.472735 
L 402.45113 322.034908 
L 406.46472 271.536706 
L 410.478311 291.315058 
L 414.491901 283.322073 
L 418.505492 281.706636 
L 422.519082 268.345393 
L 426.532673 293.642863 
L 430.546263 273.996543 
L 434.559854 279.632617 
L 438.573444 274.932908 
L 442.587035 289.96879 
L 446.600625 296.975279 
L 450.614215 272.58474 
L 454.627806 282.348083 
L 458.641396 288.893927 
L 462.654987 271.490328 
L 466.668577 270.786532 
L 470.682168 286.3186 
L 474.695758 313.841561 
L 478.709349 290.734102 
L 482.722939 283.745803 
L 486.73653 272.670874 
L 490.75012 312.638257 
L 494.763711 265.408876 
L 498.777301 301.577411 
L 502.790892 324.767124 
L 506.804482 283.21781 
L 510.818073 319.886152 
L 514.831663 272.102332 
L 518.845254 321.682802 
L 522.858844 296.3776 
L 526.872435 288.253613 
L 530.886025 279.592549 
L 534.899616 311.566152 
L 538.913206 312.207542 
L 542.926797 273.281076 
L 546.940387 278.810606 
L 550.953978 299.043971 
L 554.967568 184.995522 
L 558.981159 252.018966 
L 562.994749 274.579419 
L 567.00834 279.472574 
L 571.02193 253.428457 
L 575.035521 290.435842 
L 579.049111 281.485091 
L 583.062702 285.951035 
L 587.076292 259.949328 
L 591.089883 262.246084 
L 595.103473 249.352162 
L 599.117064 296.762785 
L 603.130654 284.093124 
L 607.144245 308.774949 
L 611.157835 309.808069 
L 615.171426 280.302524 
L 619.185016 275.522663 
L 623.198607 297.956457 
L 627.212197 282.110102 
L 631.225788 319.059741 
L 635.239378 290.645442 
L 639.252969 284.128219 
L 643.266559 286.793409 
L 647.28015 287.570868 
L 651.29374 305.244618 
L 655.307331 306.146461 
L 659.320921 263.451761 
L 663.334512 313.309705 
L 667.348102 298.455429 
L 671.361693 314.958572 
L 675.375283 297.436355 
L 679.388874 333.634169 
L 683.402464 340.570676 
L 687.416055 315.330995 
L 691.429645 307.25943 
L 695.443236 304.539774 
L 699.456826 321.776079 
L 703.470417 287.084534 
L 707.484007 290.284181 
L 711.497598 335.912091 
L 715.511188 275.771682 
L 719.524779 188.663264 
L 723.538369 243.877738 
L 727.55196 266.06758 
L 731.56555 280.60245 
L 735.579141 251.461426 
L 739.592731 270.019564 
L 743.606322 274.154963 
L 747.619912 280.693442 
L 751.633503 258.59784 
L 755.647093 268.521598 
L 759.660684 278.872346 
L 763.674274 290.625697 
L 767.687865 286.924758 
L 771.701455 330.195387 
L 775.715046 296.749946 
L 779.728636 271.093862 
L 783.742227 267.303884 
L 787.755817 294.995413 
L 791.769408 256.925221 
L 795.782998 279.728854 
L 799.796589 263.543152 
L 803.810179 270.95946 
L 807.82377 270.362344 
L 811.83736 257.768789 
L 815.850951 266.691186 
L 819.864541 268.861333 
L 823.878132 251.495633 
L 827.891722 269.082867 
L 831.905313 262.238311 
L 835.918903 265.187964 
L 839.932493 265.764763 
L 843.946084 264.286859 
L 847.959674 270.624186 
L 851.973265 319.038858 
L 855.986855 276.86791 
L 864.014036 234.856579 
L 868.027627 264.880548 
L 872.041217 236.187373 
L 876.054808 215.865943 
L 880.068398 187.793661 
L 884.081989 134.795532 
L 888.095579 201.980107 
L 892.10917 230.633362 
L 896.12276 235.849688 
L 900.136351 240.000697 
L 908.163532 265.702518 
L 912.177122 297.536646 
L 916.190713 247.754034 
L 920.204303 257.024214 
L 924.217894 279.493502 
L 928.231484 346.114788 
L 932.245075 310.32794 
L 936.258665 311.4542 
L 940.272256 337.487406 
L 944.285846 295.061932 
L 948.299437 296.924987 
L 952.313027 321.495565 
L 956.326618 271.528165 
L 960.340208 317.153312 
L 964.353799 310.264989 
L 968.367389 282.704665 
L 972.38098 296.504449 
L 976.39457 296.795117 
L 980.408161 338.329388 
L 984.421751 310.425902 
L 988.435342 280.68164 
L 992.448932 292.0583 
L 996.462523 335.221999 
L 1000.476113 336.86557 
L 1004.489704 374.699239 
L 1008.503294 307.493277 
L 1012.516885 339.430103 
L 1016.530475 292.402223 
L 1020.544066 389.958959 
L 1024.557656 305.933153 
L 1028.571247 256.585611 
L 1032.584837 288.498669 
L 1036.598428 276.202649 
L 1040.612018 258.198851 
L 1044.625609 233.528781 
L 1048.639199 189.608175 
L 1048.639199 189.608175 
" clip-path="url(#pf32416f35f)" style="fill: none; stroke-dasharray: 4.44,1.92; stroke-dashoffset: 0; stroke: #ff7f0e; stroke-width: 1.2"/>
   </g>
   <g id="patch_3">
    <path d="M 61.295938 379.24 
L 61.295938 7.2 
" style="fill: none; stroke: #000000; stroke-width: 0.8; stroke-linejoin: miter; stroke-linecap: square"/>
   </g>
   <g id="patch_4">
    <path d="M 1047.675937 379.24 
L 1047.675937 7.2 
" style="fill: none; stroke: #000000; stroke-width: 0.8; stroke-linejoin: miter; stroke-linecap: square"/>
   </g>
   <g id="patch_5">
    <path d="M 61.295938 379.24 
L 1047.675937 379.24 
" style="fill: none; stroke: #000000; stroke-width: 0.8; stroke-linejoin: miter; stroke-linecap: square"/>
   </g>
   <g id="patch_6">
    <path d="M 61.295938 7.2 
L 1047.675937 7.2 
" style="fill: none; stroke: #000000; stroke-width: 0.8; stroke-linejoin: miter; stroke-linecap: square"/>
   </g>
  </g>
 </g>
 <defs>
  <clipPath id="pf32416f35f">
   <rect x="61.295938" y="7.2" width="986.38" height="372.04"/>
  </clipPath>
 </defs>
</svg>
